<?xml version="1.0" encoding="us-ascii" standalone="no"?><svg xmlns="http://www.w3.org/2000/svg" xmlns:xlink="http://www.w3.org/1999/xlink" contentStyleType="text/css" height="505px" preserveAspectRatio="none" style="width:1429px;height:505px;background:#FFFFFF;" version="1.1" viewBox="0 0 1429 505" width="1429px" zoomAndPan="magnify"><defs/><g><!--cluster db--><g id="cluster_db"><path d="M6,16 C6,6 228.5,6 228.5,6 C228.5,6 451,6 451,16 L451,478 C451,488 228.5,488 228.5,488 C228.5,488 6,488 6,478 L6,16 " fill="none" style="stroke:#181818;stroke-width:1.0;"/><path d="M6,16 C6,26 228.5,26 228.5,26 C228.5,26 451,26 451,16 " fill="none" style="stroke:#181818;stroke-width:1.0;"/><text fill="#000000" font-family="sans-serif" font-size="14" font-style="italic" lengthAdjust="spacing" textLength="64" x="196.5" y="40.9951">&#171;device&#187;</text><text fill="#000000" font-family="sans-serif" font-size="14" font-weight="bold" lengthAdjust="spacing" textLength="73" x="192" y="57.292">Database</text></g><!--cluster postgres--><g id="cluster_postgres"><rect fill="none" height="368" rx="2.5" ry="2.5" style="stroke:#181818;stroke-width:1.0;" width="373" x="38" y="88"/><polygon fill="none" points="394,93,394,107,406,107,406,99,400,93,394,93" style="stroke:#181818;stroke-width:1.0;"/><line style="stroke:#181818;stroke-width:1.0;" x1="400" x2="400" y1="93" y2="99"/><line style="stroke:#181818;stroke-width:1.0;" x1="406" x2="400" y1="99" y2="99"/><text fill="#000000" font-family="sans-serif" font-size="14" font-weight="bold" lengthAdjust="spacing" textLength="71" x="189" y="102.9951">postgres</text></g><!--entity backend--><g id="elem_backend"><polygon fill="#F1F1F1" points="492,121,502,111,596,111,596,163.5938,586,173.5938,492,173.5938,492,121" style="stroke:#181818;stroke-width:0.5;"/><line style="stroke:#181818;stroke-width:0.5;" x1="586" x2="596" y1="121" y2="111"/><line style="stroke:#181818;stroke-width:0.5;" x1="492" x2="586" y1="121" y2="121"/><line style="stroke:#181818;stroke-width:0.5;" x1="586" x2="586" y1="121" y2="173.5938"/><text fill="#000000" font-family="sans-serif" font-size="14" font-style="italic" lengthAdjust="spacing" textLength="64" x="507" y="143.9951">&#171;device&#187;</text><text fill="#000000" font-family="sans-serif" font-size="14" lengthAdjust="spacing" textLength="61" x="508.5" y="160.292">Backend</text></g><!--entity compute--><g id="elem_compute"><polygon fill="#F1F1F1" points="631,121,641,111,735,111,735,163.5938,725,173.5938,631,173.5938,631,121" style="stroke:#181818;stroke-width:0.5;"/><line style="stroke:#181818;stroke-width:0.5;" x1="725" x2="735" y1="121" y2="111"/><line style="stroke:#181818;stroke-width:0.5;" x1="631" x2="725" y1="121" y2="121"/><line style="stroke:#181818;stroke-width:0.5;" x1="725" x2="725" y1="121" y2="173.5938"/><text fill="#000000" font-family="sans-serif" font-size="14" font-style="italic" lengthAdjust="spacing" textLength="64" x="646" y="143.9951">&#171;device&#187;</text><text fill="#000000" font-family="sans-serif" font-size="14" lengthAdjust="spacing" textLength="64" x="646" y="160.292">Compute</text></g><!--entity local_network--><g id="elem_local_network"><path d="M689.7917,274.4668 C693.8546,266.9354 699.1179,267.4244 703.7298,273.9213 C706.9912,268.1181 713.1435,267.9047 716.5839,273.7233 C719.8555,266.3083 725.3087,265.9963 729.9604,272.3859 C734.3537,265.4158 741.0212,264.508 744.93,272.8592 C747.8637,267.0953 753.4168,267.7726 756.6377,272.5398 C760.9984,265.1939 767.6893,267.0411 771.3856,273.2621 C775.5831,267.9948 782.4463,267.9543 784.9044,275.1489 C788.7647,269.2375 794.6842,268.6317 798.9001,274.7347 C807.4226,275.8168 812.947,282.724 805.9884,290.6856 C809.8214,298.4068 808.7155,303.5515 799.0804,304.5735 C796.1924,312.7523 791.6503,313.4731 785.5381,307.7039 C782.0923,314.9971 774.8577,313.8636 771.0128,308.1497 C766.4479,315.6892 761.8406,314.1521 757.2185,308.2081 C753.5082,315.3053 748.3876,316.4692 743.2174,309.6801 C739.5566,315.1063 734.5525,315.5229 730.5086,310.1302 C725.7475,314.8713 721.3189,315.3703 717.9426,308.6164 C713.04,315.9568 705.3409,315.3861 702.4619,306.6659 C696.5795,312.9521 692.3821,310.7124 688.6179,304.3479 C680.7348,303.9836 676.0448,299.11 680.0644,291.0751 C675.1611,281.9158 680.1995,275.1363 689.7917,274.4668 " fill="#F1F1F1" style="stroke:#181818;stroke-width:0.5;"/><text fill="#000000" font-family="sans-serif" font-size="14" lengthAdjust="spacing" textLength="95" x="695.5" y="293.9951">Local network</text></g><!--entity Article--><g id="elem_Article"><rect fill="#F1F1F1" height="39.2969" rx="2.5" ry="2.5" style="stroke:#181818;stroke-width:0.5;" width="72" x="54" y="123"/><polygon fill="#F1F1F1" points="109,128,109,142,121,142,121,134,115,128,109,128" style="stroke:#181818;stroke-width:0.5;"/><line style="stroke:#181818;stroke-width:0.5;" x1="115" x2="115" y1="128" y2="134"/><line style="stroke:#181818;stroke-width:0.5;" x1="121" x2="115" y1="134" y2="134"/><text fill="#000000" font-family="sans-serif" font-size="14" lengthAdjust="spacing" textLength="42" x="64" y="148.9951">Article</text></g><!--entity Proccessed--><g id="elem_Proccessed"><rect fill="#F1F1F1" height="39.2969" rx="2.5" ry="2.5" style="stroke:#181818;stroke-width:0.5;" width="112" x="161" y="123"/><polygon fill="#F1F1F1" points="256,128,256,142,268,142,268,134,262,128,256,128" style="stroke:#181818;stroke-width:0.5;"/><line style="stroke:#181818;stroke-width:0.5;" x1="262" x2="262" y1="128" y2="134"/><line style="stroke:#181818;stroke-width:0.5;" x1="268" x2="262" y1="134" y2="134"/><text fill="#000000" font-family="sans-serif" font-size="14" lengthAdjust="spacing" textLength="82" x="171" y="148.9951">Proccessed</text></g><!--entity Topic--><g id="elem_Topic"><rect fill="#F1F1F1" height="39.2969" rx="2.5" ry="2.5" style="stroke:#181818;stroke-width:0.5;" width="68" x="308" y="123"/><polygon fill="#F1F1F1" points="359,128,359,142,371,142,371,134,365,128,359,128" style="stroke:#181818;stroke-width:0.5;"/><line style="stroke:#181818;stroke-width:0.5;" x1="365" x2="365" y1="128" y2="134"/><line style="stroke:#181818;stroke-width:0.5;" x1="371" x2="365" y1="134" y2="134"/><text fill="#000000" font-family="sans-serif" font-size="14" lengthAdjust="spacing" textLength="38" x="318" y="148.9951">Topic</text></g><!--entity User--><g id="elem_User"><rect fill="#F1F1F1" height="39.2969" rx="2.5" ry="2.5" style="stroke:#181818;stroke-width:0.5;" width="62" x="54" y="269.5"/><polygon fill="#F1F1F1" points="99,274.5,99,288.5,111,288.5,111,280.5,105,274.5,99,274.5" style="stroke:#181818;stroke-width:0.5;"/><line style="stroke:#181818;stroke-width:0.5;" x1="105" x2="105" y1="274.5" y2="280.5"/><line style="stroke:#181818;stroke-width:0.5;" x1="111" x2="105" y1="280.5" y2="280.5"/><text fill="#000000" font-family="sans-serif" font-size="14" lengthAdjust="spacing" textLength="32" x="64" y="295.4951">User</text></g><!--entity Task--><g id="elem_Task"><rect fill="#F1F1F1" height="39.2969" rx="2.5" ry="2.5" style="stroke:#181818;stroke-width:0.5;" width="63" x="151.5" y="269.5"/><polygon fill="#F1F1F1" points="197.5,274.5,197.5,288.5,209.5,288.5,209.5,280.5,203.5,274.5,197.5,274.5" style="stroke:#181818;stroke-width:0.5;"/><line style="stroke:#181818;stroke-width:0.5;" x1="203.5" x2="203.5" y1="274.5" y2="280.5"/><line style="stroke:#181818;stroke-width:0.5;" x1="209.5" x2="203.5" y1="280.5" y2="280.5"/><text fill="#000000" font-family="sans-serif" font-size="14" lengthAdjust="spacing" textLength="33" x="161.5" y="295.4951">Task</text></g><!--entity TaskProccessed--><g id="elem_TaskProccessed"><rect fill="#F1F1F1" height="39.2969" rx="2.5" ry="2.5" style="stroke:#181818;stroke-width:0.5;" width="145" x="249.5" y="269.5"/><polygon fill="#F1F1F1" points="377.5,274.5,377.5,288.5,389.5,288.5,389.5,280.5,383.5,274.5,377.5,274.5" style="stroke:#181818;stroke-width:0.5;"/><line style="stroke:#181818;stroke-width:0.5;" x1="383.5" x2="383.5" y1="274.5" y2="280.5"/><line style="stroke:#181818;stroke-width:0.5;" x1="389.5" x2="383.5" y1="280.5" y2="280.5"/><text fill="#000000" font-family="sans-serif" font-size="14" lengthAdjust="spacing" textLength="115" x="259.5" y="295.4951">TaskProccessed</text></g><!--entity YouTubeConfig--><g id="elem_YouTubeConfig"><rect fill="#F1F1F1" height="39.2969" rx="2.5" ry="2.5" style="stroke:#181818;stroke-width:0.5;" width="137" x="54.5" y="401"/><polygon fill="#F1F1F1" points="174.5,406,174.5,420,186.5,420,186.5,412,180.5,406,174.5,406" style="stroke:#181818;stroke-width:0.5;"/><line style="stroke:#181818;stroke-width:0.5;" x1="180.5" x2="180.5" y1="406" y2="412"/><line style="stroke:#181818;stroke-width:0.5;" x1="186.5" x2="180.5" y1="412" y2="412"/><text fill="#000000" font-family="sans-serif" font-size="14" lengthAdjust="spacing" textLength="107" x="64.5" y="426.9951">YouTubeConfig</text></g><!--entity YouTubeSearch--><g id="elem_YouTubeSearch"><rect fill="#F1F1F1" height="39.2969" rx="2.5" ry="2.5" style="stroke:#181818;stroke-width:0.5;" width="141" x="226.5" y="401"/><polygon fill="#F1F1F1" points="350.5,406,350.5,420,362.5,420,362.5,412,356.5,406,350.5,406" style="stroke:#181818;stroke-width:0.5;"/><line style="stroke:#181818;stroke-width:0.5;" x1="356.5" x2="356.5" y1="406" y2="412"/><line style="stroke:#181818;stroke-width:0.5;" x1="362.5" x2="356.5" y1="412" y2="412"/><text fill="#000000" font-family="sans-serif" font-size="14" lengthAdjust="spacing" textLength="111" x="236.5" y="426.9951">YouTubeSearch</text></g><!--entity app--><g id="elem_app"><polygon fill="#F1F1F1" points="1298,267.5,1308,257.5,1412,257.5,1412,310.0938,1402,320.0938,1298,320.0938,1298,267.5" style="stroke:#181818;stroke-width:0.5;"/><line style="stroke:#181818;stroke-width:0.5;" x1="1402" x2="1412" y1="267.5" y2="257.5"/><line style="stroke:#181818;stroke-width:0.5;" x1="1298" x2="1402" y1="267.5" y2="267.5"/><line style="stroke:#181818;stroke-width:0.5;" x1="1402" x2="1402" y1="267.5" y2="320.0938"/><text fill="#000000" font-family="sans-serif" font-size="14" font-style="italic" lengthAdjust="spacing" textLength="64" x="1318" y="290.4951">&#171;device&#187;</text><text fill="#000000" font-family="sans-serif" font-size="14" lengthAdjust="spacing" textLength="74" x="1313" y="306.792">Flutter app</text></g><!--entity crawler--><g id="elem_crawler"><polygon fill="#F1F1F1" points="770.5,121,780.5,111,895.5,111,895.5,163.5938,885.5,173.5938,770.5,173.5938,770.5,121" style="stroke:#181818;stroke-width:0.5;"/><line style="stroke:#181818;stroke-width:0.5;" x1="885.5" x2="895.5" y1="121" y2="111"/><line style="stroke:#181818;stroke-width:0.5;" x1="770.5" x2="885.5" y1="121" y2="121"/><line style="stroke:#181818;stroke-width:0.5;" x1="885.5" x2="885.5" y1="121" y2="173.5938"/><text fill="#000000" font-family="sans-serif" font-size="14" font-style="italic" lengthAdjust="spacing" textLength="64" x="796" y="143.9951">&#171;device&#187;</text><text fill="#000000" font-family="sans-serif" font-size="14" lengthAdjust="spacing" textLength="85" x="785.5" y="160.292">Data fetcher</text></g><!--entity _cloud--><g id="elem__cloud"><path d="M1020.0949,406.5025 C1022.4559,400.4034 1028.1645,399.2045 1032.2344,404.7158 C1035.8758,396.821 1040.116,395.8052 1046.0803,402.5133 C1050.3929,397.4926 1056.1148,398.077 1058.5918,404.5172 C1063.1555,399.1672 1068.4581,400.8916 1071.0613,406.7067 C1078.7778,408.9029 1081.9459,415.8771 1074.8015,421.7646 C1080.7663,427.0768 1080.5835,433.5086 1072.605,436.7813 C1070.0481,444.9294 1064.9278,445.6932 1058.7131,440.6266 C1056.9015,447.6802 1051.7965,447.7739 1047.1711,443.4915 C1042.0942,448.6223 1035.1217,448.4871 1032.8737,440.4255 C1028.0728,446.4992 1022.4492,443.2969 1020.4313,437.5067 C1011.9312,434.9799 1011.2998,428.8327 1016.5049,422.6772 C1009.8642,416.7922 1012.4472,409.2161 1020.0949,406.5025 " fill="#F1F1F1" style="stroke:#181818;stroke-width:0.5;"/><text fill="#000000" font-family="sans-serif" font-size="14" lengthAdjust="spacing" textLength="38" x="1026" y="425.4951">cloud</text></g><!--entity appweb--><g id="elem_appweb"><polygon fill="#F1F1F1" points="931,121,941,111,1049,111,1049,163.5938,1039,173.5938,931,173.5938,931,121" style="stroke:#181818;stroke-width:0.5;"/><line style="stroke:#181818;stroke-width:0.5;" x1="1039" x2="1049" y1="121" y2="111"/><line style="stroke:#181818;stroke-width:0.5;" x1="931" x2="1039" y1="121" y2="121"/><line style="stroke:#181818;stroke-width:0.5;" x1="1039" x2="1039" y1="121" y2="173.5938"/><text fill="#000000" font-family="sans-serif" font-size="14" font-style="italic" lengthAdjust="spacing" textLength="64" x="953" y="143.9951">&#171;device&#187;</text><text fill="#000000" font-family="sans-serif" font-size="14" lengthAdjust="spacing" textLength="78" x="946" y="160.292">Web server</text></g><!--entity smartdevice--><g id="elem_smartdevice"><polygon fill="#F1F1F1" points="1063.5,267.5,1073.5,257.5,1262.5,257.5,1262.5,310.0938,1252.5,320.0938,1063.5,320.0938,1063.5,267.5" style="stroke:#181818;stroke-width:0.5;"/><line style="stroke:#181818;stroke-width:0.5;" x1="1252.5" x2="1262.5" y1="267.5" y2="257.5"/><line style="stroke:#181818;stroke-width:0.5;" x1="1063.5" x2="1252.5" y1="267.5" y2="267.5"/><line style="stroke:#181818;stroke-width:0.5;" x1="1252.5" x2="1252.5" y1="267.5" y2="320.0938"/><text fill="#000000" font-family="sans-serif" font-size="14" font-style="italic" lengthAdjust="spacing" textLength="64" x="1126" y="290.4951">&#171;device&#187;</text><text fill="#000000" font-family="sans-serif" font-size="14" lengthAdjust="spacing" textLength="159" x="1078.5" y="306.792">Smartphone/Computer</text></g><!--entity user--><g id="elem_user"><ellipse cx="1259" cy="113" fill="#F1F1F1" rx="8" ry="8" style="stroke:#181818;stroke-width:0.5;"/><path d="M1259,121 L1259,148 M1246,129 L1272,129 M1259,148 L1246,163 M1259,148 L1272,163 " fill="none" style="stroke:#181818;stroke-width:0.5;"/><text fill="#000000" font-family="sans-serif" font-size="14" lengthAdjust="spacing" textLength="32" x="1243" y="177.4951">User</text></g><!--link backend to local_network--><g id="link_backend_local_network"><path d="M586.2,174.14 C622.6,200.57 674.52,238.27 708.48,262.94 " fill="none" id="backend-to-local_network" style="stroke:#181818;stroke-width:1.0;"/><polygon fill="#181818" points="712.53,265.88,707.5879,257.3609,708.4808,262.9468,702.8948,263.8396,712.53,265.88" style="stroke:#181818;stroke-width:1.0;"/><text fill="#000000" font-family="sans-serif" font-size="13" lengthAdjust="spacing" textLength="39" x="657" y="223.5669">TCP/IP</text></g><!--link compute to local_network--><g id="link_compute_local_network"><path d="M695.72,174.14 C706.43,199.93 721.59,236.44 731.83,261.11 " fill="none" id="compute-to-local_network" style="stroke:#181818;stroke-width:1.0;"/><polygon fill="#181818" points="733.81,265.88,734.0559,256.0342,731.894,261.2617,726.6666,259.0998,733.81,265.88" style="stroke:#181818;stroke-width:1.0;"/><text fill="#000000" font-family="sans-serif" font-size="13" lengthAdjust="spacing" textLength="39" x="718" y="223.5669">TCP/IP</text></g><!--link crawler to local_network--><g id="link_crawler_local_network"><path d="M813.91,174.14 C797.79,200.04 774.92,236.75 759.56,261.42 " fill="none" id="crawler-to-local_network" style="stroke:#181818;stroke-width:1.0;"/><polygon fill="#181818" points="756.78,265.88,764.9336,260.3557,759.4236,261.636,758.1432,256.1259,756.78,265.88" style="stroke:#181818;stroke-width:1.0;"/><text fill="#000000" font-family="sans-serif" font-size="13" lengthAdjust="spacing" textLength="39" x="791" y="223.5669">TCP/IP</text></g><!--link user to app--><g id="link_user_app"><path d="M1275.07,167.69 C1290.56,191 1314.17,226.54 1331.72,252.96 " fill="none" id="user-to-app" style="stroke:#181818;stroke-width:1.0;"/><polygon fill="#181818" points="1334.7,257.44,1333.0359,247.7327,1331.9265,253.2797,1326.3795,252.1703,1334.7,257.44" style="stroke:#181818;stroke-width:1.0;"/></g><!--link user to smartdevice--><g id="link_user_smartdevice"><path d="M1242.93,167.69 C1227.44,191 1203.83,226.54 1186.28,252.96 " fill="none" id="user-to-smartdevice" style="stroke:#181818;stroke-width:1.0;"/><polygon fill="#181818" points="1183.3,257.44,1191.6205,252.1703,1186.0735,253.2797,1184.9641,247.7327,1183.3,257.44" style="stroke:#181818;stroke-width:1.0;"/></g><!--link app to _cloud--><g id="link_app__cloud"><path d="M1297.78,313.9 C1235.63,339.87 1138.02,380.64 1084.08,403.17 " fill="none" id="app-to-_cloud" style="stroke:#181818;stroke-width:1.0;"/><polygon fill="#181818" points="1079.32,405.16,1089.1664,405.38,1083.9333,403.2319,1086.0814,397.9987,1079.32,405.16" style="stroke:#181818;stroke-width:1.0;"/><text fill="#000000" font-family="sans-serif" font-size="13" lengthAdjust="spacing" textLength="39" x="1210" y="363.5669">TCP/IP</text></g><!--link smartdevice to _cloud--><g id="link_smartdevice__cloud"><path d="M1135.04,320.69 C1114.89,342.8 1087.99,372.32 1068.86,393.32 " fill="none" id="smartdevice-to-_cloud" style="stroke:#181818;stroke-width:1.0;"/><polygon fill="#181818" points="1065.38,397.13,1074.3984,393.1716,1068.7476,393.4342,1068.4851,387.7834,1065.38,397.13" style="stroke:#181818;stroke-width:1.0;"/><text fill="#000000" font-family="sans-serif" font-size="13" lengthAdjust="spacing" textLength="39" x="1108" y="363.5669">TCP/IP</text></g><!--link local_network to _cloud--><g id="link_local_network__cloud"><path d="M792.87,312.13 C828.27,327.77 876.96,349.13 920,367.5 C948.78,379.78 981.43,393.35 1006.14,403.55 " fill="none" id="local_network-to-_cloud" style="stroke:#181818;stroke-width:1.0;"/><polygon fill="#181818" points="1010.97,405.54,1004.182,398.404,1006.3496,403.6291,1001.1245,405.7967,1010.97,405.54" style="stroke:#181818;stroke-width:1.0;"/><text fill="#000000" font-family="sans-serif" font-size="13" lengthAdjust="spacing" textLength="39" x="921" y="363.5669">TCP/IP</text></g><!--link appweb to local_network--><g id="link_appweb_local_network"><path d="M937.62,174.14 C892.26,200.68 827.48,238.58 785.33,263.24 " fill="none" id="appweb-to-local_network" style="stroke:#181818;stroke-width:1.0;"/><polygon fill="#181818" points="780.82,265.88,790.6073,264.7801,785.1337,263.3518,786.5621,257.8782,780.82,265.88" style="stroke:#181818;stroke-width:1.0;"/><text fill="#000000" font-family="sans-serif" font-size="13" lengthAdjust="spacing" textLength="39" x="874" y="223.5669">TCP/IP</text></g><!--link appweb to _cloud--><g id="link_appweb__cloud"><path d="M989.84,174 C990.27,209.63 992.97,270.11 1005,320.5 C1011.03,345.77 1022.44,373.03 1031.54,392.54 " fill="none" id="appweb-to-_cloud" style="stroke:#181818;stroke-width:1.0;"/><polygon fill="#181818" points="1033.8,397.33,1033.5916,387.4833,1031.6731,392.8049,1026.3515,390.8864,1033.8,397.33" style="stroke:#181818;stroke-width:1.0;"/><text fill="#000000" font-family="sans-serif" font-size="13" lengthAdjust="spacing" textLength="39" x="1006" y="293.5669">TCP/IP</text></g><!--link db to local_network--><g id="link_db_local_network"><path d="M451.0304,155.9015 C451.1915,156.1275 451.3547,156.3551 451.5199,156.5843 C451.8503,157.0428 452.1888,157.5075 452.535,157.9775 C458.075,165.4975 465.61,174.37 474,180.5 C535.31,225.27 617.84,254.62 675.25,271.16 " fill="none" id="db-to-local_network" style="stroke:#181818;stroke-width:1.0;"/><polygon fill="#181818" points="680.38,272.63,672.8202,266.3173,675.5713,271.2602,670.6285,274.0113,680.38,272.63" style="stroke:#181818;stroke-width:1.0;"/><text fill="#000000" font-family="sans-serif" font-size="13" lengthAdjust="spacing" textLength="39" x="551" y="223.5669">TCP/IP</text></g><!--SRC=[VP9DRy8m38Rl_XLMxuZxX92seacJTa02DEs4qiH0rT9KIGg7YVy-vuEjBHyzfAxVnxLZkz6Ay4t8YXg5mcAHpDbCqQcKD9__05m06i_b-jXsZZmdapdY0fOjX1Eu8oSFPB906t6koVHe05dhJc7sgQMeiI5trgRAqDErTssJAwQFS3oPs0OBG76YGbZ2nTLWKHM3gf0VOLov4z9XgwtR6x8O_GFjbGrPqwsmD5fAifRKhRRMRIbltHjBvWuiR7NV-op5j-xMNK6vRdRb_g6y8c7a8SWNtp60woWda_cmfI-upfVJZoLSX_Y4I8DxJAIHlzUTSmoAjWqJvtTl2jXRekoB2kJsdD9kC7ccOh0QaLiT-OxjGJSqJOiN0wptHtWGnStG9dJUKvsV0FWp5CzP_ZzwVm1VgFV5bVgxLWzXTIGEEd4lEjtfSTTwm2XKFGlx1G00]--></g></svg>