<?xml version="1.0" encoding="us-ascii" standalone="no"?><svg xmlns="http://www.w3.org/2000/svg" xmlns:xlink="http://www.w3.org/1999/xlink" contentStyleType="text/css" height="505px" preserveAspectRatio="none" style="width:1415px;height:505px;background:#FFFFFF;" version="1.1" viewBox="0 0 1415 505" width="1415px" zoomAndPan="magnify"><defs/><g><!--cluster db--><g id="cluster_db"><path d="M6,16 C6,6 223,6 223,6 C223,6 440,6 440,16 L440,478.95 C440,488.95 223,488.95 223,488.95 C223,488.95 6,488.95 6,478.95 L6,16 " fill="none" style="stroke:#181818;stroke-width:1.0;"/><path d="M6,16 C6,26 223,26 223,26 C223,26 440,26 440,16 " fill="none" style="stroke:#181818;stroke-width:1.0;"/><text fill="#000000" font-family="sans-serif" font-size="14" font-style="italic" lengthAdjust="spacing" textLength="57" x="194.5" y="41.5352">&#171;device&#187;</text><text fill="#000000" font-family="sans-serif" font-size="14" font-weight="bold" lengthAdjust="spacing" textLength="66" x="190" y="58.0234">Database</text></g><!--cluster postgres--><g id="cluster_postgres"><rect fill="none" height="368.95" rx="2.5" ry="2.5" style="stroke:#181818;stroke-width:1.0;" width="362" x="38" y="88"/><polygon fill="none" points="383,93,383,107,395,107,395,99,389,93,383,93" style="stroke:#181818;stroke-width:1.0;"/><line style="stroke:#181818;stroke-width:1.0;" x1="389" x2="389" y1="93" y2="99"/><line style="stroke:#181818;stroke-width:1.0;" x1="395" x2="389" y1="99" y2="99"/><text fill="#000000" font-family="sans-serif" font-size="14" font-weight="bold" lengthAdjust="spacing" textLength="63" x="187.5" y="103.5352">postgres</text></g><!--entity backend--><g id="elem_backend"><polygon fill="#F1F1F1" points="484.5,121.25,494.5,111.25,581.5,111.25,581.5,164.2266,571.5,174.2266,484.5,174.2266,484.5,121.25" style="stroke:#181818;stroke-width:0.5;"/><line style="stroke:#181818;stroke-width:0.5;" x1="571.5" x2="581.5" y1="121.25" y2="111.25"/><line style="stroke:#181818;stroke-width:0.5;" x1="484.5" x2="571.5" y1="121.25" y2="121.25"/><line style="stroke:#181818;stroke-width:0.5;" x1="571.5" x2="571.5" y1="121.25" y2="174.2266"/><text fill="#000000" font-family="sans-serif" font-size="14" font-style="italic" lengthAdjust="spacing" textLength="57" x="499.5" y="144.7852">&#171;device&#187;</text><text fill="#000000" font-family="sans-serif" font-size="14" lengthAdjust="spacing" textLength="57" x="499.5" y="161.2734">Backend</text></g><!--entity compute--><g id="elem_compute"><polygon fill="#F1F1F1" points="616.5,121.25,626.5,111.25,719.5,111.25,719.5,164.2266,709.5,174.2266,616.5,174.2266,616.5,121.25" style="stroke:#181818;stroke-width:0.5;"/><line style="stroke:#181818;stroke-width:0.5;" x1="709.5" x2="719.5" y1="121.25" y2="111.25"/><line style="stroke:#181818;stroke-width:0.5;" x1="616.5" x2="709.5" y1="121.25" y2="121.25"/><line style="stroke:#181818;stroke-width:0.5;" x1="709.5" x2="709.5" y1="121.25" y2="174.2266"/><text fill="#000000" font-family="sans-serif" font-size="14" font-style="italic" lengthAdjust="spacing" textLength="57" x="634.5" y="144.7852">&#171;device&#187;</text><text fill="#000000" font-family="sans-serif" font-size="14" lengthAdjust="spacing" textLength="63" x="631.5" y="161.2734">Compute</text></g><!--entity local_network--><g id="elem_local_network"><path d="M672.7917,274.6968 C676.8546,267.1654 682.1179,267.6544 686.7298,274.1513 C689.9912,268.3481 696.1435,268.1347 699.5839,273.9533 C702.8555,266.5383 708.3087,266.2263 712.9604,272.6159 C717.3537,265.6458 724.0212,264.738 727.93,273.0892 C730.8637,267.3253 736.4168,268.0026 739.6377,272.7698 C743.9984,265.4239 750.6893,267.2711 754.3856,273.4921 C758.5831,268.2248 765.4463,268.1843 767.9044,275.3789 C771.7647,269.4675 777.6842,268.8617 781.9001,274.9647 C790.4629,276.0712 795.9996,283.0253 788.9884,291.0113 C792.8638,298.7646 791.7659,303.9408 782.0804,304.9949 C779.1924,313.1737 774.6503,313.8945 768.5381,308.1253 C765.0923,315.4185 757.8577,314.285 754.0128,308.5711 C749.4479,316.1106 744.8406,314.5735 740.2185,308.6295 C736.5082,315.7268 731.3876,316.8906 726.2174,310.1015 C722.5566,315.5277 717.5525,315.9443 713.5086,310.5516 C708.7475,315.2927 704.3189,315.7917 700.9426,309.0378 C696.04,316.3782 688.3409,315.8075 685.4619,307.0873 C679.5795,313.3735 675.3821,311.1338 671.6179,304.7693 C663.6958,304.3773 658.998,299.4634 663.0644,291.4008 C658.117,282.2146 663.1601,275.3932 672.7917,274.6968 " fill="#F1F1F1" style="stroke:#181818;stroke-width:0.5;"/><text fill="#000000" font-family="sans-serif" font-size="14" lengthAdjust="spacing" textLength="95" x="678.5" y="294.7652">Local network</text></g><!--entity Article--><g id="elem_Article"><rect fill="#F1F1F1" height="39.4883" rx="2.5" ry="2.5" style="stroke:#181818;stroke-width:0.5;" width="74" x="54" y="123"/><polygon fill="#F1F1F1" points="111,128,111,142,123,142,123,134,117,128,111,128" style="stroke:#181818;stroke-width:0.5;"/><line style="stroke:#181818;stroke-width:0.5;" x1="117" x2="117" y1="128" y2="134"/><line style="stroke:#181818;stroke-width:0.5;" x1="123" x2="117" y1="134" y2="134"/><text fill="#000000" font-family="sans-serif" font-size="14" lengthAdjust="spacing" textLength="44" x="64" y="149.5352">Article</text></g><!--entity Proccessed--><g id="elem_Proccessed"><rect fill="#F1F1F1" height="39.4883" rx="2.5" ry="2.5" style="stroke:#181818;stroke-width:0.5;" width="106" x="163" y="123"/><polygon fill="#F1F1F1" points="252,128,252,142,264,142,264,134,258,128,252,128" style="stroke:#181818;stroke-width:0.5;"/><line style="stroke:#181818;stroke-width:0.5;" x1="258" x2="258" y1="128" y2="134"/><line style="stroke:#181818;stroke-width:0.5;" x1="264" x2="258" y1="134" y2="134"/><text fill="#000000" font-family="sans-serif" font-size="14" lengthAdjust="spacing" textLength="76" x="173" y="149.5352">Proccessed</text></g><!--entity Topic--><g id="elem_Topic"><rect fill="#F1F1F1" height="39.4883" rx="2.5" ry="2.5" style="stroke:#181818;stroke-width:0.5;" width="68" x="304" y="123"/><polygon fill="#F1F1F1" points="355,128,355,142,367,142,367,134,361,128,355,128" style="stroke:#181818;stroke-width:0.5;"/><line style="stroke:#181818;stroke-width:0.5;" x1="361" x2="361" y1="128" y2="134"/><line style="stroke:#181818;stroke-width:0.5;" x1="367" x2="361" y1="134" y2="134"/><text fill="#000000" font-family="sans-serif" font-size="14" lengthAdjust="spacing" textLength="38" x="314" y="149.5352">Topic</text></g><!--entity User--><g id="elem_User"><rect fill="#F1F1F1" height="39.4883" rx="2.5" ry="2.5" style="stroke:#181818;stroke-width:0.5;" width="61" x="53.5" y="269.73"/><polygon fill="#F1F1F1" points="97.5,274.73,97.5,288.73,109.5,288.73,109.5,280.73,103.5,274.73,97.5,274.73" style="stroke:#181818;stroke-width:0.5;"/><line style="stroke:#181818;stroke-width:0.5;" x1="103.5" x2="103.5" y1="274.73" y2="280.73"/><line style="stroke:#181818;stroke-width:0.5;" x1="109.5" x2="103.5" y1="280.73" y2="280.73"/><text fill="#000000" font-family="sans-serif" font-size="14" lengthAdjust="spacing" textLength="31" x="63.5" y="296.2652">User</text></g><!--entity Task--><g id="elem_Task"><rect fill="#F1F1F1" height="39.4883" rx="2.5" ry="2.5" style="stroke:#181818;stroke-width:0.5;" width="62" x="149" y="269.73"/><polygon fill="#F1F1F1" points="194,274.73,194,288.73,206,288.73,206,280.73,200,274.73,194,274.73" style="stroke:#181818;stroke-width:0.5;"/><line style="stroke:#181818;stroke-width:0.5;" x1="200" x2="200" y1="274.73" y2="280.73"/><line style="stroke:#181818;stroke-width:0.5;" x1="206" x2="200" y1="280.73" y2="280.73"/><text fill="#000000" font-family="sans-serif" font-size="14" lengthAdjust="spacing" textLength="32" x="159" y="296.2652">Task</text></g><!--entity TaskProccessed--><g id="elem_TaskProccessed"><rect fill="#F1F1F1" height="39.4883" rx="2.5" ry="2.5" style="stroke:#181818;stroke-width:0.5;" width="138" x="246" y="269.73"/><polygon fill="#F1F1F1" points="367,274.73,367,288.73,379,288.73,379,280.73,373,274.73,367,274.73" style="stroke:#181818;stroke-width:0.5;"/><line style="stroke:#181818;stroke-width:0.5;" x1="373" x2="373" y1="274.73" y2="280.73"/><line style="stroke:#181818;stroke-width:0.5;" x1="379" x2="373" y1="280.73" y2="280.73"/><text fill="#000000" font-family="sans-serif" font-size="14" lengthAdjust="spacing" textLength="108" x="256" y="296.2652">TaskProccessed</text></g><!--entity YouTubeConfig--><g id="elem_YouTubeConfig"><rect fill="#F1F1F1" height="39.4883" rx="2.5" ry="2.5" style="stroke:#181818;stroke-width:0.5;" width="138" x="54" y="401.46"/><polygon fill="#F1F1F1" points="175,406.46,175,420.46,187,420.46,187,412.46,181,406.46,175,406.46" style="stroke:#181818;stroke-width:0.5;"/><line style="stroke:#181818;stroke-width:0.5;" x1="181" x2="181" y1="406.46" y2="412.46"/><line style="stroke:#181818;stroke-width:0.5;" x1="187" x2="181" y1="412.46" y2="412.46"/><text fill="#000000" font-family="sans-serif" font-size="14" lengthAdjust="spacing" textLength="108" x="64" y="427.9952">YouTubeConfig</text></g><!--entity YouTubeSearch--><g id="elem_YouTubeSearch"><rect fill="#F1F1F1" height="39.4883" rx="2.5" ry="2.5" style="stroke:#181818;stroke-width:0.5;" width="138" x="227" y="401.46"/><polygon fill="#F1F1F1" points="348,406.46,348,420.46,360,420.46,360,412.46,354,406.46,348,406.46" style="stroke:#181818;stroke-width:0.5;"/><line style="stroke:#181818;stroke-width:0.5;" x1="354" x2="354" y1="406.46" y2="412.46"/><line style="stroke:#181818;stroke-width:0.5;" x1="360" x2="354" y1="412.46" y2="412.46"/><text fill="#000000" font-family="sans-serif" font-size="14" lengthAdjust="spacing" textLength="108" x="237" y="427.9952">YouTubeSearch</text></g><!--entity app--><g id="elem_app"><polygon fill="#F1F1F1" points="1283.5,267.99,1293.5,257.99,1398.5,257.99,1398.5,310.9666,1388.5,320.9666,1283.5,320.9666,1283.5,267.99" style="stroke:#181818;stroke-width:0.5;"/><line style="stroke:#181818;stroke-width:0.5;" x1="1388.5" x2="1398.5" y1="267.99" y2="257.99"/><line style="stroke:#181818;stroke-width:0.5;" x1="1283.5" x2="1388.5" y1="267.99" y2="267.99"/><line style="stroke:#181818;stroke-width:0.5;" x1="1388.5" x2="1388.5" y1="267.99" y2="320.9666"/><text fill="#000000" font-family="sans-serif" font-size="14" font-style="italic" lengthAdjust="spacing" textLength="57" x="1307.5" y="291.5252">&#171;device&#187;</text><text fill="#000000" font-family="sans-serif" font-size="14" lengthAdjust="spacing" textLength="75" x="1298.5" y="308.0134">Flutter app</text></g><!--entity crawler--><g id="elem_crawler"><polygon fill="#F1F1F1" points="754.5,121.25,764.5,111.25,877.5,111.25,877.5,164.2266,867.5,174.2266,754.5,174.2266,754.5,121.25" style="stroke:#181818;stroke-width:0.5;"/><line style="stroke:#181818;stroke-width:0.5;" x1="867.5" x2="877.5" y1="121.25" y2="111.25"/><line style="stroke:#181818;stroke-width:0.5;" x1="754.5" x2="867.5" y1="121.25" y2="121.25"/><line style="stroke:#181818;stroke-width:0.5;" x1="867.5" x2="867.5" y1="121.25" y2="174.2266"/><text fill="#000000" font-family="sans-serif" font-size="14" font-style="italic" lengthAdjust="spacing" textLength="57" x="782.5" y="144.7852">&#171;device&#187;</text><text fill="#000000" font-family="sans-serif" font-size="14" lengthAdjust="spacing" textLength="83" x="769.5" y="161.2734">Data fetcher</text></g><!--entity _cloud--><g id="elem__cloud"><path d="M1003.0949,406.9625 C1005.4559,400.8634 1011.1645,399.6645 1015.2344,405.1758 C1018.8758,397.281 1023.116,396.2652 1029.0803,402.9733 C1033.3929,397.9526 1039.1148,398.537 1041.5918,404.9772 C1046.1555,399.6272 1051.4581,401.3516 1054.0613,407.1667 C1061.8207,409.3875 1064.9974,416.4082 1057.8015,422.3203 C1063.8083,427.6602 1063.6303,434.1323 1055.605,437.4327 C1053.0481,445.5808 1047.9278,446.3446 1041.7131,441.278 C1039.9015,448.3316 1034.7965,448.4253 1030.1711,444.1429 C1025.0942,449.2737 1018.1217,449.1385 1015.8737,441.0769 C1011.0728,447.1506 1005.4492,443.9483 1003.4313,438.1581 C994.884,435.6025 994.2586,429.4172 999.5049,423.2329 C992.8194,417.3231 995.4074,409.701 1003.0949,406.9625 " fill="#F1F1F1" style="stroke:#181818;stroke-width:0.5;"/><text fill="#000000" font-family="sans-serif" font-size="14" lengthAdjust="spacing" textLength="38" x="1009" y="426.4952">cloud</text></g><!--entity appweb--><g id="elem_appweb"><polygon fill="#F1F1F1" points="912.5,121.25,922.5,111.25,1027.5,111.25,1027.5,164.2266,1017.5,174.2266,912.5,174.2266,912.5,121.25" style="stroke:#181818;stroke-width:0.5;"/><line style="stroke:#181818;stroke-width:0.5;" x1="1017.5" x2="1027.5" y1="121.25" y2="111.25"/><line style="stroke:#181818;stroke-width:0.5;" x1="912.5" x2="1017.5" y1="121.25" y2="121.25"/><line style="stroke:#181818;stroke-width:0.5;" x1="1017.5" x2="1017.5" y1="121.25" y2="174.2266"/><text fill="#000000" font-family="sans-serif" font-size="14" font-style="italic" lengthAdjust="spacing" textLength="57" x="936.5" y="144.7852">&#171;device&#187;</text><text fill="#000000" font-family="sans-serif" font-size="14" lengthAdjust="spacing" textLength="75" x="927.5" y="161.2734">Web server</text></g><!--entity smartdevice--><g id="elem_smartdevice"><polygon fill="#F1F1F1" points="1048,267.99,1058,257.99,1248,257.99,1248,310.9666,1238,320.9666,1048,320.9666,1048,267.99" style="stroke:#181818;stroke-width:0.5;"/><line style="stroke:#181818;stroke-width:0.5;" x1="1238" x2="1248" y1="267.99" y2="257.99"/><line style="stroke:#181818;stroke-width:0.5;" x1="1048" x2="1238" y1="267.99" y2="267.99"/><line style="stroke:#181818;stroke-width:0.5;" x1="1238" x2="1238" y1="267.99" y2="320.9666"/><text fill="#000000" font-family="sans-serif" font-size="14" font-style="italic" lengthAdjust="spacing" textLength="57" x="1114.5" y="291.5252">&#171;device&#187;</text><text fill="#000000" font-family="sans-serif" font-size="14" lengthAdjust="spacing" textLength="160" x="1063" y="308.0134">Smartphone/Computer</text></g><!--entity user--><g id="elem_user"><ellipse cx="1245" cy="113" fill="#F1F1F1" rx="8" ry="8" style="stroke:#181818;stroke-width:0.5;"/><path d="M1245,121 L1245,148 M1232,129 L1258,129 M1245,148 L1232,163 M1245,148 L1258,163 " fill="none" style="stroke:#181818;stroke-width:0.5;"/><text fill="#000000" font-family="sans-serif" font-size="14" lengthAdjust="spacing" textLength="31" x="1229.5" y="178.0352">User</text></g><!--link backend to local_network--><g id="link_backend_local_network"><path d="M573.49,174.68 C594.48,190.67 620.56,210.45 644,227.99 C659.14,239.32 675.94,251.73 690.37,262.35 " fill="none" id="backend-to-local_network" style="stroke:#181818;stroke-width:1.0;"/><polygon fill="#181818" points="694.16,265.88,689.2718,257.3299,690.1293,262.9213,684.5379,263.7789,694.16,265.88" style="stroke:#181818;stroke-width:1.0;"/><text fill="#000000" font-family="sans-serif" font-size="13" lengthAdjust="spacing" textLength="42" x="645" y="224.5584">TCP/IP</text></g><!--link compute to local_network--><g id="link_compute_local_network"><path d="M680.3,174.44 C690.5,199.89 704.89,235.79 714.78,260.47 " fill="none" id="compute-to-local_network" style="stroke:#181818;stroke-width:1.0;"/><polygon fill="#181818" points="716.94,264.87,717.3114,255.0281,715.083,260.2276,709.8836,257.9993,716.94,264.87" style="stroke:#181818;stroke-width:1.0;"/><text fill="#000000" font-family="sans-serif" font-size="13" lengthAdjust="spacing" textLength="42" x="702" y="224.5584">TCP/IP</text></g><!--link crawler to local_network--><g id="link_crawler_local_network"><path d="M796.91,174.44 C781.02,200 758.57,236.09 743.22,260.78 " fill="none" id="crawler-to-local_network" style="stroke:#181818;stroke-width:1.0;"/><polygon fill="#181818" points="740.06,264.87,748.2136,259.3457,742.7036,260.626,741.4232,255.1159,740.06,264.87" style="stroke:#181818;stroke-width:1.0;"/><text fill="#000000" font-family="sans-serif" font-size="13" lengthAdjust="spacing" textLength="42" x="774" y="224.5584">TCP/IP</text></g><!--link user to app--><g id="link_user_app"><path d="M1260.85,167.64 C1276.24,190.85 1299.8,226.35 1317.39,252.88 " fill="none" id="user-to-app" style="stroke:#181818;stroke-width:1.0;"/><polygon fill="#181818" points="1320.61,256.73,1318.9613,247.0201,1317.8431,252.5654,1312.2978,251.4472,1320.61,256.73" style="stroke:#181818;stroke-width:1.0;"/></g><!--link user to smartdevice--><g id="link_user_smartdevice"><path d="M1229.2,167.32 C1213.68,190.47 1189.81,226.09 1171.96,252.72 " fill="none" id="user-to-smartdevice" style="stroke:#181818;stroke-width:1.0;"/><polygon fill="#181818" points="1168.7,256.58,1177.033,251.3301,1171.4834,252.4263,1170.3872,246.8767,1168.7,256.58" style="stroke:#181818;stroke-width:1.0;"/></g><!--link app to _cloud--><g id="link_app__cloud"><path d="M1283.23,314.42 C1220.55,340.4 1122.17,381.17 1067.67,403.76 " fill="none" id="app-to-_cloud" style="stroke:#181818;stroke-width:1.0;"/><polygon fill="#181818" points="1063.22,406.02,1073.0655,406.2767,1067.8404,404.1091,1070.008,398.884,1063.22,406.02" style="stroke:#181818;stroke-width:1.0;"/><text fill="#000000" font-family="sans-serif" font-size="13" lengthAdjust="spacing" textLength="42" x="1194" y="364.5284">TCP/IP</text></g><!--link smartdevice to _cloud--><g id="link_smartdevice__cloud"><path d="M1119.56,321.22 C1099.24,343.18 1072.18,372.45 1052.75,393.45 " fill="none" id="smartdevice-to-_cloud" style="stroke:#181818;stroke-width:1.0;"/><polygon fill="#181818" points="1049.72,396.8,1058.7776,392.9321,1053.1244,393.1381,1052.9185,387.485,1049.72,396.8" style="stroke:#181818;stroke-width:1.0;"/><text fill="#000000" font-family="sans-serif" font-size="13" lengthAdjust="spacing" textLength="42" x="1092" y="364.5284">TCP/IP</text></g><!--link local_network to _cloud--><g id="link_local_network__cloud"><path d="M775.38,313.16 C809.87,328.87 857.07,350.09 899,367.96 C928.78,380.66 962.72,394.37 988.31,404.56 " fill="none" id="local_network-to-_cloud" style="stroke:#181818;stroke-width:1.0;"/><polygon fill="#181818" points="992.64,406.68,985.7506,399.6418,987.9927,404.8354,982.7992,407.0775,992.64,406.68" style="stroke:#181818;stroke-width:1.0;"/><text fill="#000000" font-family="sans-serif" font-size="13" lengthAdjust="spacing" textLength="42" x="900" y="364.5284">TCP/IP</text></g><!--link appweb to local_network--><g id="link_appweb_local_network"><path d="M917.96,174.61 C873.57,200.94 810.53,238.33 768.97,262.98 " fill="none" id="appweb-to-local_network" style="stroke:#181818;stroke-width:1.0;"/><polygon fill="#181818" points="765.01,265.93,774.79,264.7678,769.3075,263.3743,770.701,257.8918,765.01,265.93" style="stroke:#181818;stroke-width:1.0;"/><text fill="#000000" font-family="sans-serif" font-size="13" lengthAdjust="spacing" textLength="42" x="856" y="224.5584">TCP/IP</text></g><!--link appweb to _cloud--><g id="link_appweb__cloud"><path d="M969.91,174.64 C970.47,210.39 973.44,270.76 986,320.96 C992.27,346.01 1003.99,372.9 1013.46,392.36 " fill="none" id="appweb-to-_cloud" style="stroke:#181818;stroke-width:1.0;"/><polygon fill="#181818" points="1016.06,396.65,1015.6883,386.8082,1013.8583,392.1608,1008.5056,390.3309,1016.06,396.65" style="stroke:#181818;stroke-width:1.0;"/><text fill="#000000" font-family="sans-serif" font-size="13" lengthAdjust="spacing" textLength="42" x="987" y="294.5384">TCP/IP</text></g><!--link db to local_network--><g id="link_db_local_network"><path d="M440.0875,154.4025 C440.175,154.5105 440.2631,154.619 440.3518,154.728 C440.5292,154.946 440.7089,155.166 440.8908,155.3879 C441.6187,156.2754 442.3828,157.1928 443.18,158.1325 C449.5575,165.65 458.05,174.59 467,180.99 C525.5,222.79 602.69,252.13 657.55,269.48 " fill="none" id="db-to-local_network" style="stroke:#181818;stroke-width:1.0;"/><polygon fill="#181818" points="662.12,271.22,654.7339,264.705,657.3501,269.7205,652.3347,272.3368,662.12,271.22" style="stroke:#181818;stroke-width:1.0;"/><text fill="#000000" font-family="sans-serif" font-size="13" lengthAdjust="spacing" textLength="42" x="548" y="224.5584">TCP/IP</text></g><!--SRC=[VP9DRy8m38Rl_XLMxuZxX92seacJTa02DEs4qiH0rT9KIGg7YVy-vuEjBHyzfAxVnxLZkz6Ay4t8YXg5mcAHpDbCqQcKD9__05m06i_b-jXsZZmdapdY0fOjX1Eu8oSFPB906t6koVHe05dhJc7sgQMeiI5trgRAqDErTssJAwQFS3oPs0OBG76YGbZ2nTLWKHM3gf0VOLov4z9XgwtR6x8O_GFjbGrPqwsmD5fAifRKhRRMRIbltHjBvWuiR7NV-op5j-xMNK6vRdRb_g6y8c7a8SWNtp60woWda_cmfI-upfVJZoLSX_Y4I8DxJAIHlzUTSmoAjWqJvtTl2jXRekoB2kJsdD9kC7ccOh0QaLiT-OxjGJSqJOiN0wptHtWGnStG9dJUKvsV0FWp5CzP_ZzwVm1VgFV5bVgxLWzXTIGEEd4lEjtfSTTwm2XKFGlx1G00]--></g></svg>