<?xml version="1.0" encoding="us-ascii" standalone="no"?><svg xmlns="http://www.w3.org/2000/svg" xmlns:xlink="http://www.w3.org/1999/xlink" contentStyleType="text/css" height="489px" preserveAspectRatio="none" style="width:1251px;height:489px;background:#FFFFFF;" version="1.1" viewBox="0 0 1251 489" width="1251px" zoomAndPan="magnify"><defs/><g><!--cluster db--><g id="cluster_db"><path d="M6,146.5 C6,136.5 249,136.5 249,136.5 C249,136.5 492,136.5 492,146.5 L492,462 C492,472 249,472 249,472 C249,472 6,472 6,462 L6,146.5 " fill="none" style="stroke:#181818;stroke-width:1.0;"/><path d="M6,146.5 C6,156.5 249,156.5 249,156.5 C249,156.5 492,156.5 492,146.5 " fill="none" style="stroke:#181818;stroke-width:1.0;"/><text fill="#000000" font-family="sans-serif" font-size="14" font-style="italic" lengthAdjust="spacing" textLength="63" x="217.5" y="171.4951">&#171;device&#187;</text><text fill="#000000" font-family="sans-serif" font-size="14" font-weight="bold" lengthAdjust="spacing" textLength="73" x="212.5" y="187.792">Database</text></g><!--cluster postgres--><g id="cluster_postgres"><rect fill="none" height="221.5" rx="2.5" ry="2.5" style="stroke:#181818;stroke-width:1.0;" width="414" x="38" y="218.5"/><polygon fill="none" points="435,223.5,435,237.5,447,237.5,447,229.5,441,223.5,435,223.5" style="stroke:#181818;stroke-width:1.0;"/><line style="stroke:#181818;stroke-width:1.0;" x1="441" x2="441" y1="223.5" y2="229.5"/><line style="stroke:#181818;stroke-width:1.0;" x1="447" x2="441" y1="229.5" y2="229.5"/><text fill="#000000" font-family="sans-serif" font-size="14" font-weight="bold" lengthAdjust="spacing" textLength="71" x="209.5" y="233.4951">postgres</text></g><!--entity backend--><g id="elem_backend"><polygon fill="#F1F1F1" points="533.5,251.5,543.5,241.5,636.5,241.5,636.5,294.0938,626.5,304.0938,533.5,304.0938,533.5,251.5" style="stroke:#181818;stroke-width:0.5;"/><line style="stroke:#181818;stroke-width:0.5;" x1="626.5" x2="636.5" y1="251.5" y2="241.5"/><line style="stroke:#181818;stroke-width:0.5;" x1="533.5" x2="626.5" y1="251.5" y2="251.5"/><line style="stroke:#181818;stroke-width:0.5;" x1="626.5" x2="626.5" y1="251.5" y2="304.0938"/><text fill="#000000" font-family="sans-serif" font-size="14" font-style="italic" lengthAdjust="spacing" textLength="63" x="548.5" y="274.4951">&#171;device&#187;</text><text fill="#000000" font-family="sans-serif" font-size="14" lengthAdjust="spacing" textLength="61" x="549.5" y="290.792">Backend</text></g><!--entity compute--><g id="elem_compute"><polygon fill="#F1F1F1" points="672,251.5,682,241.5,776,241.5,776,294.0938,766,304.0938,672,304.0938,672,251.5" style="stroke:#181818;stroke-width:0.5;"/><line style="stroke:#181818;stroke-width:0.5;" x1="766" x2="776" y1="251.5" y2="241.5"/><line style="stroke:#181818;stroke-width:0.5;" x1="672" x2="766" y1="251.5" y2="251.5"/><line style="stroke:#181818;stroke-width:0.5;" x1="766" x2="766" y1="251.5" y2="304.0938"/><text fill="#000000" font-family="sans-serif" font-size="14" font-style="italic" lengthAdjust="spacing" textLength="63" x="687.5" y="274.4951">&#171;device&#187;</text><text fill="#000000" font-family="sans-serif" font-size="14" lengthAdjust="spacing" textLength="64" x="687" y="290.792">Compute</text></g><!--entity local_network--><g id="elem_local_network"><path d="M670.7917,389.9668 C674.8546,382.4354 680.1179,382.9244 684.7298,389.4213 C687.9912,383.6181 694.1435,383.4047 697.5839,389.2233 C700.8555,381.8083 706.3087,381.4963 710.9604,387.8859 C715.3537,380.9158 722.0212,380.008 725.93,388.3592 C728.8637,382.5953 734.4168,383.2726 737.6377,388.0398 C741.9984,380.6939 748.6893,382.5411 752.3856,388.7621 C756.5831,383.4948 763.4463,383.4543 765.9044,390.6489 C769.7647,384.7375 775.6842,384.1317 779.9001,390.2347 C788.4226,391.3168 793.947,398.224 786.9884,406.1856 C790.8214,413.9068 789.7155,419.0515 780.0804,420.0735 C777.1924,428.2523 772.6503,428.9731 766.5381,423.2039 C763.0923,430.4971 755.8577,429.3636 752.0128,423.6497 C747.4479,431.1892 742.8406,429.6521 738.2185,423.7081 C734.5082,430.8053 729.3876,431.9692 724.2174,425.1801 C720.5566,430.6063 715.5525,431.0229 711.5086,425.6302 C706.7475,430.3713 702.3189,430.8703 698.9426,424.1164 C694.04,431.4568 686.3409,430.8861 683.4619,422.1659 C677.5795,428.4521 673.3821,426.2124 669.6179,419.8479 C661.7348,419.4836 657.0448,414.61 661.0644,406.5751 C656.1611,397.4158 661.1995,390.6363 670.7917,389.9668 " fill="#F1F1F1" style="stroke:#181818;stroke-width:0.5;"/><text fill="#000000" font-family="sans-serif" font-size="14" lengthAdjust="spacing" textLength="95" x="676.5" y="409.4951">Local network</text></g><!--entity Article--><g id="elem_Article"><rect fill="#F1F1F1" height="39.2969" rx="2.5" ry="2.5" style="stroke:#181818;stroke-width:0.5;" width="72" x="54" y="253.5"/><polygon fill="#F1F1F1" points="109,258.5,109,272.5,121,272.5,121,264.5,115,258.5,109,258.5" style="stroke:#181818;stroke-width:0.5;"/><line style="stroke:#181818;stroke-width:0.5;" x1="115" x2="115" y1="258.5" y2="264.5"/><line style="stroke:#181818;stroke-width:0.5;" x1="121" x2="115" y1="264.5" y2="264.5"/><text fill="#000000" font-family="sans-serif" font-size="14" lengthAdjust="spacing" textLength="42" x="64" y="279.4951">Article</text></g><!--entity Proccessed--><g id="elem_Proccessed"><rect fill="#F1F1F1" height="39.2969" rx="2.5" ry="2.5" style="stroke:#181818;stroke-width:0.5;" width="112" x="161" y="253.5"/><polygon fill="#F1F1F1" points="256,258.5,256,272.5,268,272.5,268,264.5,262,258.5,256,258.5" style="stroke:#181818;stroke-width:0.5;"/><line style="stroke:#181818;stroke-width:0.5;" x1="262" x2="262" y1="258.5" y2="264.5"/><line style="stroke:#181818;stroke-width:0.5;" x1="268" x2="262" y1="264.5" y2="264.5"/><text fill="#000000" font-family="sans-serif" font-size="14" lengthAdjust="spacing" textLength="82" x="171" y="279.4951">Proccessed</text></g><!--entity ModelIteration--><g id="elem_ModelIteration"><rect fill="#F1F1F1" height="39.2969" rx="2.5" ry="2.5" style="stroke:#181818;stroke-width:0.5;" width="128" x="308" y="253.5"/><polygon fill="#F1F1F1" points="419,258.5,419,272.5,431,272.5,431,264.5,425,258.5,419,258.5" style="stroke:#181818;stroke-width:0.5;"/><line style="stroke:#181818;stroke-width:0.5;" x1="425" x2="425" y1="258.5" y2="264.5"/><line style="stroke:#181818;stroke-width:0.5;" x1="431" x2="425" y1="264.5" y2="264.5"/><text fill="#000000" font-family="sans-serif" font-size="14" lengthAdjust="spacing" textLength="98" x="318" y="279.4951">ModelIteration</text></g><!--entity Model--><g id="elem_Model"><rect fill="#F1F1F1" height="39.2969" rx="2.5" ry="2.5" style="stroke:#181818;stroke-width:0.5;" width="72" x="54" y="385"/><polygon fill="#F1F1F1" points="109,390,109,404,121,404,121,396,115,390,109,390" style="stroke:#181818;stroke-width:0.5;"/><line style="stroke:#181818;stroke-width:0.5;" x1="115" x2="115" y1="390" y2="396"/><line style="stroke:#181818;stroke-width:0.5;" x1="121" x2="115" y1="396" y2="396"/><text fill="#000000" font-family="sans-serif" font-size="14" lengthAdjust="spacing" textLength="42" x="64" y="410.9951">Model</text></g><!--entity Topic--><g id="elem_Topic"><rect fill="#F1F1F1" height="39.2969" rx="2.5" ry="2.5" style="stroke:#181818;stroke-width:0.5;" width="68" x="161" y="385"/><polygon fill="#F1F1F1" points="212,390,212,404,224,404,224,396,218,390,212,390" style="stroke:#181818;stroke-width:0.5;"/><line style="stroke:#181818;stroke-width:0.5;" x1="218" x2="218" y1="390" y2="396"/><line style="stroke:#181818;stroke-width:0.5;" x1="224" x2="218" y1="396" y2="396"/><text fill="#000000" font-family="sans-serif" font-size="14" lengthAdjust="spacing" textLength="38" x="171" y="410.9951">Topic</text></g><!--entity app--><g id="elem_app"><polygon fill="#F1F1F1" points="1125.5,251.5,1135.5,241.5,1234.5,241.5,1234.5,294.0938,1224.5,304.0938,1125.5,304.0938,1125.5,251.5" style="stroke:#181818;stroke-width:0.5;"/><line style="stroke:#181818;stroke-width:0.5;" x1="1224.5" x2="1234.5" y1="251.5" y2="241.5"/><line style="stroke:#181818;stroke-width:0.5;" x1="1125.5" x2="1224.5" y1="251.5" y2="251.5"/><line style="stroke:#181818;stroke-width:0.5;" x1="1224.5" x2="1224.5" y1="251.5" y2="304.0938"/><text fill="#000000" font-family="sans-serif" font-size="14" font-style="italic" lengthAdjust="spacing" textLength="63" x="1143.5" y="274.4951">&#171;device&#187;</text><text fill="#000000" font-family="sans-serif" font-size="14" lengthAdjust="spacing" textLength="69" x="1140.5" y="290.792">Computer</text></g><!--entity crawler--><g id="elem_crawler"><polygon fill="#F1F1F1" points="811.5,251.5,821.5,241.5,936.5,241.5,936.5,294.0938,926.5,304.0938,811.5,304.0938,811.5,251.5" style="stroke:#181818;stroke-width:0.5;"/><line style="stroke:#181818;stroke-width:0.5;" x1="926.5" x2="936.5" y1="251.5" y2="241.5"/><line style="stroke:#181818;stroke-width:0.5;" x1="811.5" x2="926.5" y1="251.5" y2="251.5"/><line style="stroke:#181818;stroke-width:0.5;" x1="926.5" x2="926.5" y1="251.5" y2="304.0938"/><text fill="#000000" font-family="sans-serif" font-size="14" font-style="italic" lengthAdjust="spacing" textLength="63" x="837.5" y="274.4951">&#171;device&#187;</text><text fill="#000000" font-family="sans-serif" font-size="14" lengthAdjust="spacing" textLength="85" x="826.5" y="290.792">Data fetcher</text></g><!--entity _cloud--><g id="elem__cloud"><path d="M1102.0949,390.5025 C1104.4559,384.4034 1110.1645,383.2045 1114.2344,388.7158 C1117.8758,380.821 1122.116,379.8052 1128.0803,386.5133 C1132.3929,381.4926 1138.1148,382.077 1140.5918,388.5172 C1145.1555,383.1672 1150.4581,384.8916 1153.0613,390.7067 C1160.7778,392.9029 1163.9459,399.8771 1156.8015,405.7646 C1162.7663,411.0768 1162.5835,417.5086 1154.605,420.7813 C1152.0481,428.9294 1146.9278,429.6932 1140.7131,424.6266 C1138.9015,431.6802 1133.7965,431.7739 1129.1711,427.4915 C1124.0942,432.6223 1117.1217,432.4871 1114.8737,424.4255 C1110.0728,430.4992 1104.4492,427.2969 1102.4313,421.5067 C1093.9312,418.9799 1093.2998,412.8327 1098.5049,406.6772 C1091.8642,400.7922 1094.4472,393.2161 1102.0949,390.5025 " fill="#F1F1F1" style="stroke:#181818;stroke-width:0.5;"/><text fill="#000000" font-family="sans-serif" font-size="14" lengthAdjust="spacing" textLength="38" x="1108" y="409.4951">cloud</text></g><!--entity appweb--><g id="elem_appweb"><polygon fill="#F1F1F1" points="972,251.5,982,241.5,1090,241.5,1090,294.0938,1080,304.0938,972,304.0938,972,251.5" style="stroke:#181818;stroke-width:0.5;"/><line style="stroke:#181818;stroke-width:0.5;" x1="1080" x2="1090" y1="251.5" y2="241.5"/><line style="stroke:#181818;stroke-width:0.5;" x1="972" x2="1080" y1="251.5" y2="251.5"/><line style="stroke:#181818;stroke-width:0.5;" x1="1080" x2="1080" y1="251.5" y2="304.0938"/><text fill="#000000" font-family="sans-serif" font-size="14" font-style="italic" lengthAdjust="spacing" textLength="63" x="994.5" y="274.4951">&#171;device&#187;</text><text fill="#000000" font-family="sans-serif" font-size="14" lengthAdjust="spacing" textLength="78" x="987" y="290.792">Web server</text></g><!--entity user--><g id="elem_user"><ellipse cx="1180" cy="14" fill="#F1F1F1" rx="8" ry="8" style="stroke:#181818;stroke-width:0.5;"/><path d="M1180,22 L1180,49 M1167,30 L1193,30 M1180,49 L1167,64 M1180,49 L1193,64 " fill="none" style="stroke:#181818;stroke-width:0.5;"/><text fill="#000000" font-family="sans-serif" font-size="14" lengthAdjust="spacing" textLength="32" x="1164" y="78.4951">User</text></g><!--link backend to local_network--><g id="link_backend_local_network"><path d="M617.94,304.69 C641.77,326.89 673.62,356.56 696.18,377.58 " fill="none" id="backend-to-local_network" style="stroke:#181818;stroke-width:1.0;"/><polygon fill="#181818" points="699.99,381.13,696.141,372.0644,696.3352,377.7179,690.6817,377.9121,699.99,381.13" style="stroke:#181818;stroke-width:1.0;"/><text fill="#000000" font-family="sans-serif" font-size="13" lengthAdjust="spacing" textLength="39" x="668" y="347.5669">TCP/IP</text></g><!--link compute to local_network--><g id="link_compute_local_network"><path d="M724,304.69 C724,326.34 724,355.09 724,376 " fill="none" id="compute-to-local_network" style="stroke:#181818;stroke-width:1.0;"/><polygon fill="#181818" points="724,381.13,728,372.13,724,376.13,720,372.13,724,381.13" style="stroke:#181818;stroke-width:1.0;"/><text fill="#000000" font-family="sans-serif" font-size="13" lengthAdjust="spacing" textLength="39" x="725" y="347.5669">TCP/IP</text></g><!--link crawler to local_network--><g id="link_crawler_local_network"><path d="M838.45,304.69 C812.63,326.98 778.09,356.81 753.73,377.84 " fill="none" id="crawler-to-local_network" style="stroke:#181818;stroke-width:1.0;"/><polygon fill="#181818" points="749.91,381.13,759.3412,378.2923,753.7002,377.869,754.1236,372.228,749.91,381.13" style="stroke:#181818;stroke-width:1.0;"/><text fill="#000000" font-family="sans-serif" font-size="13" lengthAdjust="spacing" textLength="39" x="805" y="347.5669">TCP/IP</text></g><!--link user to app--><g id="link_user_app"><path d="M1180,81.56 C1180,124.27 1180,193.98 1180,236.16 " fill="none" id="user-to-app" style="stroke:#181818;stroke-width:1.0;"/><polygon fill="#181818" points="1180,241.17,1184,232.17,1180,236.17,1176,232.17,1180,241.17" style="stroke:#181818;stroke-width:1.0;"/></g><!--link app to _cloud--><g id="link_app__cloud"><path d="M1167.44,304.69 C1158.54,326.43 1146.71,355.34 1138.15,376.26 " fill="none" id="app-to-_cloud" style="stroke:#181818;stroke-width:1.0;"/><polygon fill="#181818" points="1136.15,381.13,1143.2681,374.3232,1138.0487,376.5045,1135.8673,371.2852,1136.15,381.13" style="stroke:#181818;stroke-width:1.0;"/><text fill="#000000" font-family="sans-serif" font-size="13" lengthAdjust="spacing" textLength="39" x="1157" y="347.5669">TCP/IP</text></g><!--link appweb to local_network--><g id="link_appweb_local_network"><path d="M971.84,300.24 C937.29,315.45 892.79,334.82 853,351.5 C830.74,360.83 806.2,370.8 784.56,379.49 " fill="none" id="appweb-to-local_network" style="stroke:#181818;stroke-width:1.0;"/><polygon fill="#181818" points="779.7,381.44,789.5419,381.8114,784.3424,379.583,786.5707,374.3836,779.7,381.44" style="stroke:#181818;stroke-width:1.0;"/><text fill="#000000" font-family="sans-serif" font-size="13" lengthAdjust="spacing" textLength="39" x="894" y="347.5669">TCP/IP</text></g><!--link appweb to _cloud--><g id="link_appweb__cloud"><path d="M1053.75,304.69 C1070.07,326.71 1091.84,356.07 1107.4,377.05 " fill="none" id="appweb-to-_cloud" style="stroke:#181818;stroke-width:1.0;"/><polygon fill="#181818" points="1110.42,381.13,1108.2805,371.5163,1107.4452,377.1112,1101.8504,376.276,1110.42,381.13" style="stroke:#181818;stroke-width:1.0;"/><text fill="#000000" font-family="sans-serif" font-size="13" lengthAdjust="spacing" textLength="39" x="1089" y="347.5669">TCP/IP</text></g><!--link db to local_network--><g id="link_db_local_network"><path d="M492.0985,282.8745 C492.1404,282.9185 492.1825,282.9626 492.2247,283.0068 C492.3091,283.0951 492.3941,283.1839 492.4795,283.273 C493.1628,283.9863 493.878,284.7252 494.6212,285.4838 C500.5675,291.5525 508.315,298.885 516,304.5 C559.69,336.41 615.29,362.24 658.02,379.51 " fill="none" id="db-to-local_network" style="stroke:#181818;stroke-width:1.0;"/><polygon fill="#181818" points="662.9,381.47,656.048,374.3954,658.2626,379.6008,653.0572,381.8153,662.9,381.47" style="stroke:#181818;stroke-width:1.0;"/><text fill="#000000" font-family="sans-serif" font-size="13" lengthAdjust="spacing" textLength="39" x="593" y="347.5669">TCP/IP</text></g><!--SRC=[VP7DRi8m48Jl-nIhN79ASwyGKWiNf5P2AbMFoB6N431sP3kXKiMxruu3JQ2GGxAP-VopiqeBmbV6zwG4Cej5NqucWjgAqtJw0t02K86RwKFTE0eSxyihhiEIENCCD-JubapIqOOT9Pa13S2bRWGcRvepYOhSKPjzWe6MGLhtKZm-ml7jYNLN0GX_KC4iuVnSU5CKerkXVvXnrOPnXxMshZHaCUeZxyKNNDAjiJIQSxAMnAttxXkM2qU6kKghE_wjlD9rnJlv5De3EEUUPTDn_y-ucYtpnHBEYJyW-fJl4_ry-Zd6sR2w7kI5Wt4dNrIW9TF-aKSgHaDC8_Xny9tLMwqe7-rjWnxfqJ8VWJRuwVSELEE_0E7TNTqV0-dbRx05XAi6BOx_qbKwOBnzxOwY-6zztzVzs0R0rLBnQ1caEzOop7RC87txJ9I7dDRIvhLaoZK7-HGyeRbNZDuHTsj1jYfLlgbAp9njory0]--></g></svg>