<?xml version="1.0" encoding="us-ascii" standalone="no"?><svg xmlns="http://www.w3.org/2000/svg" xmlns:xlink="http://www.w3.org/1999/xlink" contentStyleType="text/css" height="495px" preserveAspectRatio="none" style="width:1868px;height:495px;background:#FFFFFF;" version="1.1" viewBox="0 0 1868 495" width="1868px" zoomAndPan="magnify"><defs/><g><!--cluster backend--><g id="cluster_backend"><polygon fill="none" points="16,199.5,26,189.5,350,189.5,350,444,340,454,16,454,16,199.5" style="stroke:#181818;stroke-width:1.0;"/><line style="stroke:#181818;stroke-width:1.0;" x1="340" x2="350" y1="199.5" y2="189.5"/><line style="stroke:#181818;stroke-width:1.0;" x1="16" x2="340" y1="199.5" y2="199.5"/><line style="stroke:#181818;stroke-width:1.0;" x1="340" x2="340" y1="199.5" y2="454"/><text fill="#000000" font-family="sans-serif" font-size="14" font-style="italic" lengthAdjust="spacing" textLength="64" x="147" y="215.4951">&#171;device&#187;</text><text fill="#000000" font-family="sans-serif" font-size="14" font-weight="bold" lengthAdjust="spacing" textLength="67" x="145.5" y="231.792">Backend</text></g><!--cluster compute--><g id="cluster_compute"><polygon fill="none" points="834,199.5,844,189.5,1051,189.5,1051,306.5,1041,316.5,834,316.5,834,199.5" style="stroke:#181818;stroke-width:1.0;"/><line style="stroke:#181818;stroke-width:1.0;" x1="1041" x2="1051" y1="199.5" y2="189.5"/><line style="stroke:#181818;stroke-width:1.0;" x1="834" x2="1041" y1="199.5" y2="199.5"/><line style="stroke:#181818;stroke-width:1.0;" x1="1041" x2="1041" y1="199.5" y2="316.5"/><text fill="#000000" font-family="sans-serif" font-size="14" font-style="italic" lengthAdjust="spacing" textLength="64" x="906.5" y="215.4951">&#171;device&#187;</text><text fill="#000000" font-family="sans-serif" font-size="14" font-weight="bold" lengthAdjust="spacing" textLength="71" x="903" y="231.792">Compute</text></g><!--cluster crawler--><g id="cluster_crawler"><polygon fill="none" points="390,199.5,400,189.5,794,189.5,794,306.5,784,316.5,390,316.5,390,199.5" style="stroke:#181818;stroke-width:1.0;"/><line style="stroke:#181818;stroke-width:1.0;" x1="784" x2="794" y1="199.5" y2="189.5"/><line style="stroke:#181818;stroke-width:1.0;" x1="390" x2="784" y1="199.5" y2="199.5"/><line style="stroke:#181818;stroke-width:1.0;" x1="784" x2="784" y1="199.5" y2="316.5"/><text fill="#000000" font-family="sans-serif" font-size="14" font-style="italic" lengthAdjust="spacing" textLength="64" x="556" y="215.4951">&#171;device&#187;</text><text fill="#000000" font-family="sans-serif" font-size="14" font-weight="bold" lengthAdjust="spacing" textLength="98" x="539" y="231.792">Data fetcher</text></g><!--cluster db--><g id="cluster_db"><path d="M1365,146.5 C1365,136.5 1608,136.5 1608,136.5 C1608,136.5 1851,136.5 1851,146.5 L1851,468 C1851,478 1608,478 1608,478 C1608,478 1365,478 1365,468 L1365,146.5 " fill="none" style="stroke:#181818;stroke-width:1.0;"/><path d="M1365,146.5 C1365,156.5 1608,156.5 1608,156.5 C1608,156.5 1851,156.5 1851,146.5 " fill="none" style="stroke:#181818;stroke-width:1.0;"/><text fill="#000000" font-family="sans-serif" font-size="14" font-style="italic" lengthAdjust="spacing" textLength="64" x="1576" y="171.4951">&#171;device&#187;</text><text fill="#000000" font-family="sans-serif" font-size="14" font-weight="bold" lengthAdjust="spacing" textLength="73" x="1571.5" y="187.792">Database</text></g><!--cluster postgres--><g id="cluster_postgres"><rect fill="none" height="227.5" rx="2.5" ry="2.5" style="stroke:#181818;stroke-width:1.0;" width="414" x="1405" y="218.5"/><polygon fill="none" points="1802,223.5,1802,237.5,1814,237.5,1814,229.5,1808,223.5,1802,223.5" style="stroke:#181818;stroke-width:1.0;"/><line style="stroke:#181818;stroke-width:1.0;" x1="1808" x2="1808" y1="223.5" y2="229.5"/><line style="stroke:#181818;stroke-width:1.0;" x1="1814" x2="1808" y1="229.5" y2="229.5"/><text fill="#000000" font-family="sans-serif" font-size="14" font-weight="bold" lengthAdjust="spacing" textLength="71" x="1576.5" y="233.4951">postgres</text></g><!--entity docker--><g id="elem_docker"><rect fill="#F1F1F1" height="39.2969" rx="2.5" ry="2.5" style="stroke:#181818;stroke-width:0.5;" width="78" x="40" y="253.5"/><polygon fill="#F1F1F1" points="101,258.5,101,272.5,113,272.5,113,264.5,107,258.5,101,258.5" style="stroke:#181818;stroke-width:0.5;"/><line style="stroke:#181818;stroke-width:0.5;" x1="107" x2="107" y1="258.5" y2="264.5"/><line style="stroke:#181818;stroke-width:0.5;" x1="113" x2="107" y1="264.5" y2="264.5"/><text fill="#000000" font-family="sans-serif" font-size="14" lengthAdjust="spacing" textLength="48" x="50" y="279.4951">docker</text></g><!--entity nestjs_application--><g id="elem_nestjs_application"><rect fill="#F1F1F1" height="39.2969" rx="2.5" ry="2.5" style="stroke:#181818;stroke-width:0.5;" width="153" x="153.5" y="253.5"/><polygon fill="#F1F1F1" points="289.5,258.5,289.5,272.5,301.5,272.5,301.5,264.5,295.5,258.5,289.5,258.5" style="stroke:#181818;stroke-width:0.5;"/><line style="stroke:#181818;stroke-width:0.5;" x1="295.5" x2="295.5" y1="258.5" y2="264.5"/><line style="stroke:#181818;stroke-width:0.5;" x1="301.5" x2="295.5" y1="264.5" y2="264.5"/><text fill="#000000" font-family="sans-serif" font-size="14" lengthAdjust="spacing" textLength="123" x="163.5" y="279.4951">nestjs_application</text></g><!--entity pgadmin4--><g id="elem_pgadmin4"><rect fill="#F1F1F1" height="39.2969" rx="2.5" ry="2.5" style="stroke:#181818;stroke-width:0.5;" width="99" x="40.5" y="391"/><polygon fill="#F1F1F1" points="122.5,396,122.5,410,134.5,410,134.5,402,128.5,396,122.5,396" style="stroke:#181818;stroke-width:0.5;"/><line style="stroke:#181818;stroke-width:0.5;" x1="128.5" x2="128.5" y1="396" y2="402"/><line style="stroke:#181818;stroke-width:0.5;" x1="134.5" x2="128.5" y1="402" y2="402"/><text fill="#000000" font-family="sans-serif" font-size="14" lengthAdjust="spacing" textLength="69" x="50.5" y="416.9951">pgadmin4</text></g><!--entity maple_models.py--><g id="elem_maple_models.py"><rect fill="#F1F1F1" height="39.2969" rx="2.5" ry="2.5" style="stroke:#181818;stroke-width:0.5;" width="150" x="877" y="253.5"/><polygon fill="#F1F1F1" points="1010,258.5,1010,272.5,1022,272.5,1022,264.5,1016,258.5,1010,258.5" style="stroke:#181818;stroke-width:0.5;"/><line style="stroke:#181818;stroke-width:0.5;" x1="1016" x2="1016" y1="258.5" y2="264.5"/><line style="stroke:#181818;stroke-width:0.5;" x1="1022" x2="1016" y1="264.5" y2="264.5"/><text fill="#000000" font-family="sans-serif" font-size="14" lengthAdjust="spacing" textLength="120" x="887" y="279.4951">maple_models.py</text></g><!--entity data_fetcher.py--><g id="elem_data_fetcher.py"><rect fill="#F1F1F1" height="39.2969" rx="2.5" ry="2.5" style="stroke:#181818;stroke-width:0.5;" width="136" x="634" y="253.5"/><polygon fill="#F1F1F1" points="753,258.5,753,272.5,765,272.5,765,264.5,759,258.5,753,258.5" style="stroke:#181818;stroke-width:0.5;"/><line style="stroke:#181818;stroke-width:0.5;" x1="759" x2="759" y1="258.5" y2="264.5"/><line style="stroke:#181818;stroke-width:0.5;" x1="765" x2="759" y1="264.5" y2="264.5"/><text fill="#000000" font-family="sans-serif" font-size="14" lengthAdjust="spacing" textLength="106" x="644" y="279.4951">data_fetcher.py</text></g><!--entity chatgpt_process.py--><g id="elem_chatgpt_process.py"><rect fill="#F1F1F1" height="39.2969" rx="2.5" ry="2.5" style="stroke:#181818;stroke-width:0.5;" width="166" x="433" y="253.5"/><polygon fill="#F1F1F1" points="582,258.5,582,272.5,594,272.5,594,264.5,588,258.5,582,258.5" style="stroke:#181818;stroke-width:0.5;"/><line style="stroke:#181818;stroke-width:0.5;" x1="588" x2="588" y1="258.5" y2="264.5"/><line style="stroke:#181818;stroke-width:0.5;" x1="594" x2="588" y1="264.5" y2="264.5"/><text fill="#000000" font-family="sans-serif" font-size="14" lengthAdjust="spacing" textLength="136" x="443" y="279.4951">chatgpt_process.py</text></g><!--entity local_network--><g id="elem_local_network"><path d="M788.7917,395.9668 C792.8546,388.4354 798.1179,388.9244 802.7298,395.4213 C805.9912,389.6181 812.1435,389.4047 815.5839,395.2233 C818.8555,387.8083 824.3087,387.4963 828.9604,393.8859 C833.3537,386.9158 840.0212,386.008 843.93,394.3592 C846.8637,388.5953 852.4168,389.2726 855.6377,394.0398 C859.9984,386.6939 866.6893,388.5411 870.3856,394.7621 C874.5831,389.4948 881.4463,389.4543 883.9044,396.6489 C887.7647,390.7375 893.6842,390.1317 897.9001,396.2347 C906.4226,397.3168 911.947,404.224 904.9884,412.1856 C908.8214,419.9068 907.7155,425.0515 898.0804,426.0735 C895.1924,434.2523 890.6503,434.9731 884.5381,429.2039 C881.0923,436.4971 873.8577,435.3636 870.0128,429.6497 C865.4479,437.1892 860.8406,435.6521 856.2185,429.7081 C852.5082,436.8053 847.3876,437.9692 842.2174,431.1801 C838.5566,436.6063 833.5525,437.0229 829.5086,431.6302 C824.7475,436.3713 820.3189,436.8703 816.9426,430.1164 C812.04,437.4568 804.3409,436.8861 801.4619,428.1659 C795.5795,434.4521 791.3821,432.2124 787.6179,425.8479 C779.7348,425.4836 775.0448,420.61 779.0644,412.5751 C774.1611,403.4158 779.1995,396.6363 788.7917,395.9668 " fill="#F1F1F1" style="stroke:#181818;stroke-width:0.5;"/><text fill="#000000" font-family="sans-serif" font-size="14" lengthAdjust="spacing" textLength="95" x="794.5" y="415.4951">Local network</text></g><!--entity Article--><g id="elem_Article"><rect fill="#F1F1F1" height="39.2969" rx="2.5" ry="2.5" style="stroke:#181818;stroke-width:0.5;" width="72" x="1421" y="253.5"/><polygon fill="#F1F1F1" points="1476,258.5,1476,272.5,1488,272.5,1488,264.5,1482,258.5,1476,258.5" style="stroke:#181818;stroke-width:0.5;"/><line style="stroke:#181818;stroke-width:0.5;" x1="1482" x2="1482" y1="258.5" y2="264.5"/><line style="stroke:#181818;stroke-width:0.5;" x1="1488" x2="1482" y1="264.5" y2="264.5"/><text fill="#000000" font-family="sans-serif" font-size="14" lengthAdjust="spacing" textLength="42" x="1431" y="279.4951">Article</text></g><!--entity Proccessed--><g id="elem_Proccessed"><rect fill="#F1F1F1" height="39.2969" rx="2.5" ry="2.5" style="stroke:#181818;stroke-width:0.5;" width="112" x="1528" y="253.5"/><polygon fill="#F1F1F1" points="1623,258.5,1623,272.5,1635,272.5,1635,264.5,1629,258.5,1623,258.5" style="stroke:#181818;stroke-width:0.5;"/><line style="stroke:#181818;stroke-width:0.5;" x1="1629" x2="1629" y1="258.5" y2="264.5"/><line style="stroke:#181818;stroke-width:0.5;" x1="1635" x2="1629" y1="264.5" y2="264.5"/><text fill="#000000" font-family="sans-serif" font-size="14" lengthAdjust="spacing" textLength="82" x="1538" y="279.4951">Proccessed</text></g><!--entity ModelIteration--><g id="elem_ModelIteration"><rect fill="#F1F1F1" height="39.2969" rx="2.5" ry="2.5" style="stroke:#181818;stroke-width:0.5;" width="128" x="1675" y="253.5"/><polygon fill="#F1F1F1" points="1786,258.5,1786,272.5,1798,272.5,1798,264.5,1792,258.5,1786,258.5" style="stroke:#181818;stroke-width:0.5;"/><line style="stroke:#181818;stroke-width:0.5;" x1="1792" x2="1792" y1="258.5" y2="264.5"/><line style="stroke:#181818;stroke-width:0.5;" x1="1798" x2="1792" y1="264.5" y2="264.5"/><text fill="#000000" font-family="sans-serif" font-size="14" lengthAdjust="spacing" textLength="98" x="1685" y="279.4951">ModelIteration</text></g><!--entity Model--><g id="elem_Model"><rect fill="#F1F1F1" height="39.2969" rx="2.5" ry="2.5" style="stroke:#181818;stroke-width:0.5;" width="72" x="1421" y="391"/><polygon fill="#F1F1F1" points="1476,396,1476,410,1488,410,1488,402,1482,396,1476,396" style="stroke:#181818;stroke-width:0.5;"/><line style="stroke:#181818;stroke-width:0.5;" x1="1482" x2="1482" y1="396" y2="402"/><line style="stroke:#181818;stroke-width:0.5;" x1="1488" x2="1482" y1="402" y2="402"/><text fill="#000000" font-family="sans-serif" font-size="14" lengthAdjust="spacing" textLength="42" x="1431" y="416.9951">Model</text></g><!--entity Topic--><g id="elem_Topic"><rect fill="#F1F1F1" height="39.2969" rx="2.5" ry="2.5" style="stroke:#181818;stroke-width:0.5;" width="68" x="1528" y="391"/><polygon fill="#F1F1F1" points="1579,396,1579,410,1591,410,1591,402,1585,396,1579,396" style="stroke:#181818;stroke-width:0.5;"/><line style="stroke:#181818;stroke-width:0.5;" x1="1585" x2="1585" y1="396" y2="402"/><line style="stroke:#181818;stroke-width:0.5;" x1="1591" x2="1585" y1="402" y2="402"/><text fill="#000000" font-family="sans-serif" font-size="14" lengthAdjust="spacing" textLength="38" x="1538" y="416.9951">Topic</text></g><!--entity app--><g id="elem_app"><polygon fill="#F1F1F1" points="1228.5,251.5,1238.5,241.5,1337.5,241.5,1337.5,294.0938,1327.5,304.0938,1228.5,304.0938,1228.5,251.5" style="stroke:#181818;stroke-width:0.5;"/><line style="stroke:#181818;stroke-width:0.5;" x1="1327.5" x2="1337.5" y1="251.5" y2="241.5"/><line style="stroke:#181818;stroke-width:0.5;" x1="1228.5" x2="1327.5" y1="251.5" y2="251.5"/><line style="stroke:#181818;stroke-width:0.5;" x1="1327.5" x2="1327.5" y1="251.5" y2="304.0938"/><text fill="#000000" font-family="sans-serif" font-size="14" font-style="italic" lengthAdjust="spacing" textLength="64" x="1246" y="274.4951">&#171;device&#187;</text><text fill="#000000" font-family="sans-serif" font-size="14" lengthAdjust="spacing" textLength="69" x="1243.5" y="290.792">Computer</text></g><!--entity _cloud--><g id="elem__cloud"><path d="M1162.0949,396.5025 C1164.4559,390.4034 1170.1645,389.2045 1174.2344,394.7158 C1177.8758,386.821 1182.116,385.8052 1188.0803,392.5133 C1192.3929,387.4926 1198.1148,388.077 1200.5918,394.5172 C1205.1555,389.1672 1210.4581,390.8916 1213.0613,396.7067 C1220.7778,398.9029 1223.9459,405.8771 1216.8015,411.7646 C1222.7663,417.0768 1222.5835,423.5086 1214.605,426.7813 C1212.0481,434.9294 1206.9278,435.6932 1200.7131,430.6266 C1198.9015,437.6802 1193.7965,437.7739 1189.1711,433.4915 C1184.0942,438.6223 1177.1217,438.4871 1174.8737,430.4255 C1170.0728,436.4992 1164.4492,433.2969 1162.4313,427.5067 C1153.9312,424.9799 1153.2998,418.8327 1158.5049,412.6772 C1151.8642,406.7922 1154.4472,399.2161 1162.0949,396.5025 " fill="#F1F1F1" style="stroke:#181818;stroke-width:0.5;"/><text fill="#000000" font-family="sans-serif" font-size="14" lengthAdjust="spacing" textLength="38" x="1168" y="415.4951">cloud</text></g><!--entity appweb--><g id="elem_appweb"><polygon fill="#F1F1F1" points="1075,251.5,1085,241.5,1193,241.5,1193,294.0938,1183,304.0938,1075,304.0938,1075,251.5" style="stroke:#181818;stroke-width:0.5;"/><line style="stroke:#181818;stroke-width:0.5;" x1="1183" x2="1193" y1="251.5" y2="241.5"/><line style="stroke:#181818;stroke-width:0.5;" x1="1075" x2="1183" y1="251.5" y2="251.5"/><line style="stroke:#181818;stroke-width:0.5;" x1="1183" x2="1183" y1="251.5" y2="304.0938"/><text fill="#000000" font-family="sans-serif" font-size="14" font-style="italic" lengthAdjust="spacing" textLength="64" x="1097" y="274.4951">&#171;device&#187;</text><text fill="#000000" font-family="sans-serif" font-size="14" lengthAdjust="spacing" textLength="78" x="1090" y="290.792">Web server</text></g><!--entity user--><g id="elem_user"><ellipse cx="1283" cy="14" fill="#F1F1F1" rx="8" ry="8" style="stroke:#181818;stroke-width:0.5;"/><path d="M1283,22 L1283,49 M1270,30 L1296,30 M1283,49 L1270,64 M1283,49 L1296,64 " fill="none" style="stroke:#181818;stroke-width:0.5;"/><text fill="#000000" font-family="sans-serif" font-size="14" lengthAdjust="spacing" textLength="32" x="1267" y="78.4951">User</text></g><!--link backend to local_network--><g id="link_backend_local_network"><path d="M350.1345,291.092 C350.2266,291.2641 350.3193,291.437 350.4128,291.6106 C350.5998,291.9579 350.7897,292.3083 350.9824,292.6615 C351.7535,294.0743 352.5706,295.5327 353.4325,297.0237 C360.3275,308.9525 370.085,322.975 382,332.5 C405.53,351.31 415.84,349.93 445,357.5 C558.24,386.9 694.18,400.12 774.02,405.72 " fill="none" id="backend-to-local_network" style="stroke:#181818;stroke-width:1.0;"/><polygon fill="#181818" points="779.2,406.08,770.4956,401.472,774.2118,405.737,769.9468,409.4531,779.2,406.08" style="stroke:#181818;stroke-width:1.0;"/><text fill="#000000" font-family="sans-serif" font-size="13" lengthAdjust="spacing" textLength="39" x="446" y="353.5669">TCP/IP</text></g><!--link compute to local_network--><g id="link_compute_local_network"><path d="M842,316.9106 C842,317.6028 842,318.2991 842,318.999 C842,320.3989 842,321.8134 842,323.2398 C842,326.0926 842,328.9927 842,331.9179 C842,337.7682 842,343.7184 842,349.5889 C842,361.33 842,372.7525 842,382.42 " fill="none" id="compute-to-local_network" style="stroke:#181818;stroke-width:1.0;"/><polygon fill="#181818" points="842,387.45,846,378.45,842,382.45,838,378.45,842,387.45" style="stroke:#181818;stroke-width:1.0;"/><text fill="#000000" font-family="sans-serif" font-size="13" lengthAdjust="spacing" textLength="39" x="843" y="353.5669">TCP/IP</text></g><!--link crawler to local_network--><g id="link_crawler_local_network"><path d="M405.3278,316.6928 C408.0838,322.7563 411.8525,328.335 417,332.5 C430.38,343.32 476.99,337.94 494,340.5 C592.14,355.29 704.6,378.8 774.48,394.19 " fill="none" id="crawler-to-local_network" style="stroke:#181818;stroke-width:1.0;"/><polygon fill="#181818" points="779.44,395.29,771.5057,389.455,774.5561,394.219,769.7921,397.2693,779.44,395.29" style="stroke:#181818;stroke-width:1.0;"/><text fill="#000000" font-family="sans-serif" font-size="13" lengthAdjust="spacing" textLength="39" x="591" y="353.5669">TCP/IP</text></g><!--link user to app--><g id="link_user_app"><path d="M1283,81.56 C1283,124.27 1283,193.98 1283,236.16 " fill="none" id="user-to-app" style="stroke:#181818;stroke-width:1.0;"/><polygon fill="#181818" points="1283,241.17,1287,232.17,1283,236.17,1279,232.17,1283,241.17" style="stroke:#181818;stroke-width:1.0;"/></g><!--link app to _cloud--><g id="link_app__cloud"><path d="M1261.22,304.75 C1244.52,328.32 1221.71,360.51 1205.8,382.96 " fill="none" id="app-to-_cloud" style="stroke:#181818;stroke-width:1.0;"/><polygon fill="#181818" points="1202.72,387.32,1211.1877,382.2903,1205.6113,383.2407,1204.6609,377.6643,1202.72,387.32" style="stroke:#181818;stroke-width:1.0;"/><text fill="#000000" font-family="sans-serif" font-size="13" lengthAdjust="spacing" textLength="39" x="1236" y="353.5669">TCP/IP</text></g><!--link appweb to local_network--><g id="link_appweb_local_network"><path d="M1090.18,304.75 C1075.55,314.31 1058.92,324.44 1043,332.5 C999.91,354.31 949.09,373.73 909.34,387.6 " fill="none" id="appweb-to-local_network" style="stroke:#181818;stroke-width:1.0;"/><polygon fill="#181818" points="904.55,389.27,914.365,390.0855,909.2715,387.6246,911.7324,382.5311,904.55,389.27" style="stroke:#181818;stroke-width:1.0;"/><text fill="#000000" font-family="sans-serif" font-size="13" lengthAdjust="spacing" textLength="39" x="1023" y="353.5669">TCP/IP</text></g><!--link appweb to _cloud--><g id="link_appweb__cloud"><path d="M1138.27,304.56 C1141.19,320.73 1145.86,340.67 1153,357.5 C1156.73,366.3 1161.96,375.23 1167.19,383.16 " fill="none" id="appweb-to-_cloud" style="stroke:#181818;stroke-width:1.0;"/><polygon fill="#181818" points="1170.09,387.45,1168.3644,377.7535,1167.2902,383.3074,1161.7363,382.2332,1170.09,387.45" style="stroke:#181818;stroke-width:1.0;"/><text fill="#000000" font-family="sans-serif" font-size="13" lengthAdjust="spacing" textLength="39" x="1154" y="353.5669">TCP/IP</text></g><!--link db to local_network--><g id="link_db_local_network"><path d="M1364.9075,317.128 C1364.8656,317.2238 1364.8235,317.3196 1364.7811,317.4152 C1364.6964,317.6065 1364.6109,317.7974 1364.5244,317.9879 C1364.1787,318.7499 1363.8188,319.5055 1363.4443,320.2531 C1362.6954,321.7484 1361.8879,323.2118 1361.0173,324.6303 C1359.2761,327.4673 1357.2825,330.125 1355,332.5 C1331.82,356.62 1316.59,349.94 1284,357.5 C1153.56,387.74 997.17,400.87 909.74,406.19 " fill="none" id="db-to-local_network" style="stroke:#181818;stroke-width:1.0;"/><polygon fill="#181818" points="904.6,406.5,913.824,409.9522,909.591,406.1997,913.3435,401.9667,904.6,406.5" style="stroke:#181818;stroke-width:1.0;"/><text fill="#000000" font-family="sans-serif" font-size="13" lengthAdjust="spacing" textLength="39" x="1346" y="353.5669">TCP/IP</text></g><!--SRC=[VLGzRzim4DtlLn1QD3bUEXM1WJPP0hI0WIJeA9p9ioo78WcIjbi4-UyzIhGjsd4qKATxxntl2p9MaVY9yesC4XZ4AfltzuhsdQJ5uXq4F-XZjqOPXR9CyANFK8ZRqA1pkfCOEsi6l3uHd0snzHHAcMjHzPtv1Xy09kNnO7ktYvJoaDcycKUFJbFJiqo7E_UFOmmXgaUCADOKvOPyDKJoUD3a9v74PKaiQR8aXIf0kS7OkjWuRoM5V1L8RNTALB-iHCtbnuFrRvL8r-daQhBh7SxayMH6CrW0wTeL1XAFHuD1jRfTyh6BEVy2-y66r7GDB3dlb3YfQ-ntwjvJ97-UsJL-xNwnhfE3-oEL1t1ScjbiKTR_NRmyBETFIpYEymj67jDjHXvmNf9nkBnovM1FkrJzePK8vFTdve6cpGMeH-9ppvMvZJKqBsA7v1_PXOnROBruvTY9jUCtG3g7rFaQg4zVan2GKas-SVodgke9X-5Bj6Z5P_fSr-ssJGWNKlML3Eejxb7CjkW5_UMU62P5QtMOEuqcxdfzbp3-7x37sot9s2WANMlcwwuLinZsxNy0]--></g></svg>