<?xml version="1.0" encoding="us-ascii" standalone="no"?><svg xmlns="http://www.w3.org/2000/svg" xmlns:xlink="http://www.w3.org/1999/xlink" contentStyleType="text/css" height="485px" preserveAspectRatio="none" style="width:1313px;height:485px;background:#FFFFFF;" version="1.1" viewBox="0 0 1313 485" width="1313px" zoomAndPan="magnify"><defs/><g><!--cluster db--><g id="cluster_db"><path d="M6,16 C6,6 170.5,6 170.5,6 C170.5,6 335,6 335,16 L335,346.5 C335,356.5 170.5,356.5 170.5,356.5 C170.5,356.5 6,356.5 6,346.5 L6,16 " fill="none" style="stroke:#181818;stroke-width:1.0;"/><path d="M6,16 C6,26 170.5,26 170.5,26 C170.5,26 335,26 335,16 " fill="none" style="stroke:#181818;stroke-width:1.0;"/><text fill="#000000" font-family="sans-serif" font-size="14" font-style="italic" lengthAdjust="spacing" textLength="64" x="138.5" y="40.9951">&#171;device&#187;</text><text fill="#000000" font-family="sans-serif" font-size="14" font-weight="bold" lengthAdjust="spacing" textLength="73" x="134" y="57.292">Database</text></g><!--cluster postgres--><g id="cluster_postgres"><rect fill="none" height="236.5" rx="2.5" ry="2.5" style="stroke:#181818;stroke-width:1.0;" width="257" x="38" y="88"/><polygon fill="none" points="278,93,278,107,290,107,290,99,284,93,278,93" style="stroke:#181818;stroke-width:1.0;"/><line style="stroke:#181818;stroke-width:1.0;" x1="284" x2="284" y1="93" y2="99"/><line style="stroke:#181818;stroke-width:1.0;" x1="290" x2="284" y1="99" y2="99"/><text fill="#000000" font-family="sans-serif" font-size="14" font-weight="bold" lengthAdjust="spacing" textLength="71" x="131" y="102.9951">postgres</text></g><!--entity backend--><g id="elem_backend"><polygon fill="#F1F1F1" points="376,121,386,111,480,111,480,163.5938,470,173.5938,376,173.5938,376,121" style="stroke:#181818;stroke-width:0.5;"/><line style="stroke:#181818;stroke-width:0.5;" x1="470" x2="480" y1="121" y2="111"/><line style="stroke:#181818;stroke-width:0.5;" x1="376" x2="470" y1="121" y2="121"/><line style="stroke:#181818;stroke-width:0.5;" x1="470" x2="470" y1="121" y2="173.5938"/><text fill="#000000" font-family="sans-serif" font-size="14" font-style="italic" lengthAdjust="spacing" textLength="64" x="391" y="143.9951">&#171;device&#187;</text><text fill="#000000" font-family="sans-serif" font-size="14" lengthAdjust="spacing" textLength="61" x="392.5" y="160.292">Backend</text></g><!--entity compute--><g id="elem_compute"><polygon fill="#F1F1F1" points="515,121,525,111,619,111,619,163.5938,609,173.5938,515,173.5938,515,121" style="stroke:#181818;stroke-width:0.5;"/><line style="stroke:#181818;stroke-width:0.5;" x1="609" x2="619" y1="121" y2="111"/><line style="stroke:#181818;stroke-width:0.5;" x1="515" x2="609" y1="121" y2="121"/><line style="stroke:#181818;stroke-width:0.5;" x1="609" x2="609" y1="121" y2="173.5938"/><text fill="#000000" font-family="sans-serif" font-size="14" font-style="italic" lengthAdjust="spacing" textLength="64" x="530" y="143.9951">&#171;device&#187;</text><text fill="#000000" font-family="sans-serif" font-size="14" lengthAdjust="spacing" textLength="64" x="530" y="160.292">Compute</text></g><!--entity local_network--><g id="elem_local_network"><path d="M573.7917,274.4668 C577.8546,266.9354 583.1179,267.4244 587.7298,273.9213 C590.9912,268.1181 597.1435,267.9047 600.5839,273.7233 C603.8555,266.3083 609.3087,265.9963 613.9604,272.3859 C618.3537,265.4158 625.0212,264.508 628.93,272.8592 C631.8637,267.0953 637.4168,267.7726 640.6377,272.5398 C644.9984,265.1939 651.6893,267.0411 655.3856,273.2621 C659.5831,267.9948 666.4463,267.9543 668.9044,275.1489 C672.7647,269.2375 678.6842,268.6317 682.9001,274.7347 C691.4226,275.8168 696.947,282.724 689.9884,290.6856 C693.8214,298.4068 692.7155,303.5515 683.0804,304.5735 C680.1924,312.7523 675.6503,313.4731 669.5381,307.7039 C666.0923,314.9971 658.8577,313.8636 655.0128,308.1497 C650.4479,315.6892 645.8406,314.1521 641.2185,308.2081 C637.5082,315.3053 632.3876,316.4692 627.2174,309.6801 C623.5566,315.1063 618.5525,315.5229 614.5086,310.1302 C609.7475,314.8713 605.3189,315.3703 601.9426,308.6164 C597.04,315.9568 589.3409,315.3861 586.4619,306.6659 C580.5795,312.9521 576.3821,310.7124 572.6179,304.3479 C564.7348,303.9836 560.0448,299.11 564.0644,291.0751 C559.1611,281.9158 564.1995,275.1363 573.7917,274.4668 " fill="#F1F1F1" style="stroke:#181818;stroke-width:0.5;"/><text fill="#000000" font-family="sans-serif" font-size="14" lengthAdjust="spacing" textLength="95" x="579.5" y="293.9951">Local network</text></g><!--entity Article--><g id="elem_Article"><rect fill="#F1F1F1" height="39.2969" rx="2.5" ry="2.5" style="stroke:#181818;stroke-width:0.5;" width="72" x="74" y="123"/><polygon fill="#F1F1F1" points="129,128,129,142,141,142,141,134,135,128,129,128" style="stroke:#181818;stroke-width:0.5;"/><line style="stroke:#181818;stroke-width:0.5;" x1="135" x2="135" y1="128" y2="134"/><line style="stroke:#181818;stroke-width:0.5;" x1="141" x2="135" y1="134" y2="134"/><text fill="#000000" font-family="sans-serif" font-size="14" lengthAdjust="spacing" textLength="42" x="84" y="148.9951">Article</text></g><!--entity User--><g id="elem_User"><rect fill="#F1F1F1" height="39.2969" rx="2.5" ry="2.5" style="stroke:#181818;stroke-width:0.5;" width="62" x="181" y="123"/><polygon fill="#F1F1F1" points="226,128,226,142,238,142,238,134,232,128,226,128" style="stroke:#181818;stroke-width:0.5;"/><line style="stroke:#181818;stroke-width:0.5;" x1="232" x2="232" y1="128" y2="134"/><line style="stroke:#181818;stroke-width:0.5;" x1="238" x2="232" y1="134" y2="134"/><text fill="#000000" font-family="sans-serif" font-size="14" lengthAdjust="spacing" textLength="32" x="191" y="148.9951">User</text></g><!--entity Proccessed--><g id="elem_Proccessed"><rect fill="#F1F1F1" height="39.2969" rx="2.5" ry="2.5" style="stroke:#181818;stroke-width:0.5;" width="112" x="54" y="269.5"/><polygon fill="#F1F1F1" points="149,274.5,149,288.5,161,288.5,161,280.5,155,274.5,149,274.5" style="stroke:#181818;stroke-width:0.5;"/><line style="stroke:#181818;stroke-width:0.5;" x1="155" x2="155" y1="274.5" y2="280.5"/><line style="stroke:#181818;stroke-width:0.5;" x1="161" x2="155" y1="280.5" y2="280.5"/><text fill="#000000" font-family="sans-serif" font-size="14" lengthAdjust="spacing" textLength="82" x="64" y="295.4951">Proccessed</text></g><!--entity Search--><g id="elem_Search"><rect fill="#F1F1F1" height="39.2969" rx="2.5" ry="2.5" style="stroke:#181818;stroke-width:0.5;" width="78" x="201" y="269.5"/><polygon fill="#F1F1F1" points="262,274.5,262,288.5,274,288.5,274,280.5,268,274.5,262,274.5" style="stroke:#181818;stroke-width:0.5;"/><line style="stroke:#181818;stroke-width:0.5;" x1="268" x2="268" y1="274.5" y2="280.5"/><line style="stroke:#181818;stroke-width:0.5;" x1="274" x2="268" y1="280.5" y2="280.5"/><text fill="#000000" font-family="sans-serif" font-size="14" lengthAdjust="spacing" textLength="48" x="211" y="295.4951">Search</text></g><!--entity app--><g id="elem_app"><polygon fill="#F1F1F1" points="1182,267.5,1192,257.5,1296,257.5,1296,310.0938,1286,320.0938,1182,320.0938,1182,267.5" style="stroke:#181818;stroke-width:0.5;"/><line style="stroke:#181818;stroke-width:0.5;" x1="1286" x2="1296" y1="267.5" y2="257.5"/><line style="stroke:#181818;stroke-width:0.5;" x1="1182" x2="1286" y1="267.5" y2="267.5"/><line style="stroke:#181818;stroke-width:0.5;" x1="1286" x2="1286" y1="267.5" y2="320.0938"/><text fill="#000000" font-family="sans-serif" font-size="14" font-style="italic" lengthAdjust="spacing" textLength="64" x="1202" y="290.4951">&#171;device&#187;</text><text fill="#000000" font-family="sans-serif" font-size="14" lengthAdjust="spacing" textLength="74" x="1197" y="306.792">Flutter app</text></g><!--entity crawler--><g id="elem_crawler"><polygon fill="#F1F1F1" points="654.5,121,664.5,111,779.5,111,779.5,163.5938,769.5,173.5938,654.5,173.5938,654.5,121" style="stroke:#181818;stroke-width:0.5;"/><line style="stroke:#181818;stroke-width:0.5;" x1="769.5" x2="779.5" y1="121" y2="111"/><line style="stroke:#181818;stroke-width:0.5;" x1="654.5" x2="769.5" y1="121" y2="121"/><line style="stroke:#181818;stroke-width:0.5;" x1="769.5" x2="769.5" y1="121" y2="173.5938"/><text fill="#000000" font-family="sans-serif" font-size="14" font-style="italic" lengthAdjust="spacing" textLength="64" x="680" y="143.9951">&#171;device&#187;</text><text fill="#000000" font-family="sans-serif" font-size="14" lengthAdjust="spacing" textLength="85" x="669.5" y="160.292">Data fetcher</text></g><!--entity _cloud--><g id="elem__cloud"><path d="M875.0949,436.5025 C877.4559,430.4034 883.1645,429.2045 887.2344,434.7158 C890.8758,426.821 895.116,425.8052 901.0803,432.5133 C905.3929,427.4926 911.1148,428.077 913.5918,434.5172 C918.1555,429.1672 923.4581,430.8916 926.0613,436.7067 C933.7778,438.9029 936.9459,445.8771 929.8015,451.7646 C935.7663,457.0768 935.5835,463.5086 927.605,466.7813 C925.0481,474.9294 919.9278,475.6932 913.7131,470.6266 C911.9015,477.6802 906.7965,477.7739 902.1711,473.4915 C897.0942,478.6223 890.1217,478.4871 887.8737,470.4255 C883.0728,476.4992 877.4492,473.2969 875.4313,467.5067 C866.9312,464.9799 866.2998,458.8327 871.5049,452.6772 C864.8642,446.7922 867.4472,439.2161 875.0949,436.5025 " fill="#F1F1F1" style="stroke:#181818;stroke-width:0.5;"/><text fill="#000000" font-family="sans-serif" font-size="14" lengthAdjust="spacing" textLength="38" x="881" y="455.4951">cloud</text></g><!--entity appweb--><g id="elem_appweb"><polygon fill="#F1F1F1" points="815,121,825,111,933,111,933,163.5938,923,173.5938,815,173.5938,815,121" style="stroke:#181818;stroke-width:0.5;"/><line style="stroke:#181818;stroke-width:0.5;" x1="923" x2="933" y1="121" y2="111"/><line style="stroke:#181818;stroke-width:0.5;" x1="815" x2="923" y1="121" y2="121"/><line style="stroke:#181818;stroke-width:0.5;" x1="923" x2="923" y1="121" y2="173.5938"/><text fill="#000000" font-family="sans-serif" font-size="14" font-style="italic" lengthAdjust="spacing" textLength="64" x="837" y="143.9951">&#171;device&#187;</text><text fill="#000000" font-family="sans-serif" font-size="14" lengthAdjust="spacing" textLength="78" x="830" y="160.292">Web server</text></g><!--entity smartdevice--><g id="elem_smartdevice"><polygon fill="#F1F1F1" points="947.5,267.5,957.5,257.5,1146.5,257.5,1146.5,310.0938,1136.5,320.0938,947.5,320.0938,947.5,267.5" style="stroke:#181818;stroke-width:0.5;"/><line style="stroke:#181818;stroke-width:0.5;" x1="1136.5" x2="1146.5" y1="267.5" y2="257.5"/><line style="stroke:#181818;stroke-width:0.5;" x1="947.5" x2="1136.5" y1="267.5" y2="267.5"/><line style="stroke:#181818;stroke-width:0.5;" x1="1136.5" x2="1136.5" y1="267.5" y2="320.0938"/><text fill="#000000" font-family="sans-serif" font-size="14" font-style="italic" lengthAdjust="spacing" textLength="64" x="1010" y="290.4951">&#171;device&#187;</text><text fill="#000000" font-family="sans-serif" font-size="14" lengthAdjust="spacing" textLength="159" x="962.5" y="306.792">Smartphone/Computer</text></g><!--entity user--><g id="elem_user"><ellipse cx="1143" cy="113" fill="#F1F1F1" rx="8" ry="8" style="stroke:#181818;stroke-width:0.5;"/><path d="M1143,121 L1143,148 M1130,129 L1156,129 M1143,148 L1130,163 M1143,148 L1156,163 " fill="none" style="stroke:#181818;stroke-width:0.5;"/><text fill="#000000" font-family="sans-serif" font-size="14" lengthAdjust="spacing" textLength="32" x="1127" y="177.4951">User</text></g><!--link backend to local_network--><g id="link_backend_local_network"><path d="M470.2,174.14 C506.6,200.57 558.52,238.27 592.48,262.94 " fill="none" id="backend-to-local_network" style="stroke:#181818;stroke-width:1.0;"/><polygon fill="#181818" points="596.53,265.88,591.5879,257.3609,592.4808,262.9468,586.8948,263.8396,596.53,265.88" style="stroke:#181818;stroke-width:1.0;"/><text fill="#000000" font-family="sans-serif" font-size="13" lengthAdjust="spacing" textLength="39" x="541" y="223.5669">TCP/IP</text></g><!--link compute to local_network--><g id="link_compute_local_network"><path d="M579.72,174.14 C590.43,199.93 605.59,236.44 615.83,261.11 " fill="none" id="compute-to-local_network" style="stroke:#181818;stroke-width:1.0;"/><polygon fill="#181818" points="617.81,265.88,618.0559,256.0342,615.894,261.2617,610.6666,259.0998,617.81,265.88" style="stroke:#181818;stroke-width:1.0;"/><text fill="#000000" font-family="sans-serif" font-size="13" lengthAdjust="spacing" textLength="39" x="602" y="223.5669">TCP/IP</text></g><!--link crawler to local_network--><g id="link_crawler_local_network"><path d="M697.91,174.14 C681.79,200.04 658.92,236.75 643.56,261.42 " fill="none" id="crawler-to-local_network" style="stroke:#181818;stroke-width:1.0;"/><polygon fill="#181818" points="640.78,265.88,648.9336,260.3557,643.4236,261.636,642.1432,256.1259,640.78,265.88" style="stroke:#181818;stroke-width:1.0;"/><text fill="#000000" font-family="sans-serif" font-size="13" lengthAdjust="spacing" textLength="39" x="675" y="223.5669">TCP/IP</text></g><!--link user to app--><g id="link_user_app"><path d="M1159.07,167.69 C1174.56,191 1198.17,226.54 1215.72,252.96 " fill="none" id="user-to-app" style="stroke:#181818;stroke-width:1.0;"/><polygon fill="#181818" points="1218.7,257.44,1217.0359,247.7327,1215.9265,253.2797,1210.3795,252.1703,1218.7,257.44" style="stroke:#181818;stroke-width:1.0;"/></g><!--link user to smartdevice--><g id="link_user_smartdevice"><path d="M1126.93,167.69 C1111.44,191 1087.83,226.54 1070.28,252.96 " fill="none" id="user-to-smartdevice" style="stroke:#181818;stroke-width:1.0;"/><polygon fill="#181818" points="1067.3,257.44,1075.6205,252.1703,1070.0735,253.2797,1068.9641,247.7327,1067.3,257.44" style="stroke:#181818;stroke-width:1.0;"/></g><!--link app to _cloud--><g id="link_app__cloud"><path d="M1217.89,320.59 C1204.35,338.1 1185.34,359.17 1164,372.5 C1092.22,417.34 993.25,437 939.17,444.86 " fill="none" id="app-to-_cloud" style="stroke:#181818;stroke-width:1.0;"/><polygon fill="#181818" points="934.08,445.58,943.5509,448.2823,939.0309,444.8809,942.4323,440.3609,934.08,445.58" style="stroke:#181818;stroke-width:1.0;"/><text fill="#000000" font-family="sans-serif" font-size="13" lengthAdjust="spacing" textLength="39" x="1145" y="393.5669">TCP/IP</text></g><!--link smartdevice to _cloud--><g id="link_smartdevice__cloud"><path d="M1018.66,320.75 C991.19,350.56 949.99,395.26 924.07,423.39 " fill="none" id="smartdevice-to-_cloud" style="stroke:#181818;stroke-width:1.0;"/><polygon fill="#181818" points="920.67,427.07,929.7043,423.148,924.0525,423.3878,923.8127,417.736,920.67,427.07" style="stroke:#181818;stroke-width:1.0;"/><text fill="#000000" font-family="sans-serif" font-size="13" lengthAdjust="spacing" textLength="39" x="961" y="393.5669">TCP/IP</text></g><!--link local_network to _cloud--><g id="link_local_network__cloud"><path d="M662.29,312.14 C697.8,334.25 754.27,368.95 804,397.5 C822.48,408.11 843.25,419.43 860.72,428.79 " fill="none" id="local_network-to-_cloud" style="stroke:#181818;stroke-width:1.0;"/><polygon fill="#181818" points="865.56,431.38,859.5156,423.6041,861.1526,429.0189,855.7378,430.6559,865.56,431.38" style="stroke:#181818;stroke-width:1.0;"/><text fill="#000000" font-family="sans-serif" font-size="13" lengthAdjust="spacing" textLength="39" x="805" y="393.5669">TCP/IP</text></g><!--link appweb to local_network--><g id="link_appweb_local_network"><path d="M821.62,174.14 C776.26,200.68 711.48,238.58 669.33,263.24 " fill="none" id="appweb-to-local_network" style="stroke:#181818;stroke-width:1.0;"/><polygon fill="#181818" points="664.82,265.88,674.6073,264.7801,669.1337,263.3518,670.5621,257.8782,664.82,265.88" style="stroke:#181818;stroke-width:1.0;"/><text fill="#000000" font-family="sans-serif" font-size="13" lengthAdjust="spacing" textLength="39" x="758" y="223.5669">TCP/IP</text></g><!--link appweb to _cloud--><g id="link_appweb__cloud"><path d="M875.27,174.31 C877.25,218.34 881.64,301.76 889,372.5 C890.72,389.01 893.32,407.41 895.56,422.09 " fill="none" id="appweb-to-_cloud" style="stroke:#181818;stroke-width:1.0;"/><polygon fill="#181818" points="896.37,427.32,898.9612,417.8181,895.6129,422.3776,891.0534,419.0294,896.37,427.32" style="stroke:#181818;stroke-width:1.0;"/><text fill="#000000" font-family="sans-serif" font-size="13" lengthAdjust="spacing" textLength="39" x="890" y="293.5669">TCP/IP</text></g><!--link db to local_network--><g id="link_db_local_network"><path d="M335.0304,155.9015 C335.1915,156.1275 335.3547,156.3551 335.5199,156.5843 C335.8503,157.0428 336.1888,157.5075 336.535,157.9775 C342.075,165.4975 349.61,174.37 358,180.5 C419.31,225.27 501.84,254.62 559.25,271.16 " fill="none" id="db-to-local_network" style="stroke:#181818;stroke-width:1.0;"/><polygon fill="#181818" points="564.38,272.63,556.8202,266.3173,559.5713,271.2602,554.6285,274.0113,564.38,272.63" style="stroke:#181818;stroke-width:1.0;"/><text fill="#000000" font-family="sans-serif" font-size="13" lengthAdjust="spacing" textLength="39" x="435" y="223.5669">TCP/IP</text></g><!--SRC=[VP9DRuCm38Rl_XKMzwhtgKBQMasQj0DIE-rOXSGTLIb1IIY7gVzzpWSRqBKSmBn-JEpND5eHlWXveaQXi5YcSBLIT3bAolDlW2j0uxcrFhUT8y_95CwuW6KRuGGUoCcAJ1Pe8_gQp8W6aBNk56RlMeeQ6tAzDgSCFLrxQP-aU7o4uvs9VOW051zK2aku6G9EgdBI5V8bZ3iUX7JOQkk-35cC-YJtp86iwJRnOSdSgeNHKfArf6vpMn96La6_-lO11byNYtmwtnFkriNohO31qGT4Sl4-aVn_hJld61Hj6-pdvyWI76qq-wGIURnBMXIJFPMJFKLkU-RXsaetj4n_GIomNe_mf8fTq2OuvwdEEmZ-7fhdK_vUHby0twZNudv_nneXd9qb9qxyLvrckk_Q29YLgaTbFm00]--></g></svg>